<?xml version="1.0" standalone="no"?>
<!DOCTYPE svg PUBLIC "-//W3C//DTD SVG 20010904//EN"
 "http://www.w3.org/TR/2001/REC-SVG-20010904/DTD/svg10.dtd">
<svg version="1.0" xmlns="http://www.w3.org/2000/svg"
 width="1024.000000pt" height="1024.000000pt" viewBox="0 0 1024.000000 1024.000000"
 preserveAspectRatio="xMidYMid meet">

<g transform="translate(0.000000,1024.000000) scale(0.100000,-0.100000)"
fill="#000000" stroke="none">
<path d="M2613 9453 c-7 -2 -13 -15 -13 -27 0 -22 -65 -95 -75 -84 -3 2 6 26
20 52 l25 47 -22 -3 c-18 -2 -26 -14 -38 -63 -15 -57 -66 -152 -76 -142 -3 3
6 44 20 93 14 49 23 90 21 92 -15 15 -34 -15 -45 -70 -19 -97 -39 -163 -55
-184 -14 -18 -14 -18 -15 8 0 32 29 209 37 221 3 5 -3 7 -13 5 -13 -2 -21 -15
-25 -43 -20 -130 -41 -238 -49 -260 -13 -34 -30 -32 -30 3 0 40 29 252 35 263
4 5 -1 9 -10 9 -21 0 -22 -1 -44 -199 -19 -158 -31 -208 -50 -197 -7 5 5 210
17 299 8 50 7 57 -7 55 -10 -2 -17 -15 -18 -38 -2 -19 -7 -80 -12 -135 -6 -55
-13 -130 -16 -167 -5 -46 -13 -75 -26 -90 -20 -23 -20 -23 -14 107 4 72 11
165 16 209 6 43 8 81 4 84 -16 17 -25 -32 -41 -223 -10 -129 -23 -233 -35
-270 -10 -33 -19 -51 -19 -40 -7 94 12 443 26 489 4 12 2 17 -7 14 -21 -7 -27
-48 -43 -308 -15 -243 -26 -316 -42 -276 -9 24 3 459 15 509 9 39 2 47 -19 22
-9 -11 -15 -97 -20 -298 -4 -155 -11 -292 -15 -304 -4 -13 -5 -23 -2 -23 3 0
36 19 73 42 75 45 400 204 475 232 26 9 55 26 64 36 18 19 9 29 -10 11 -6 -4
-44 -21 -85 -36 -41 -15 -153 -63 -248 -106 -95 -44 -176 -79 -178 -79 -17 0
15 25 54 41 24 11 65 33 89 49 64 44 111 66 242 117 109 42 199 89 188 99 -2
3 -31 -7 -63 -21 -33 -15 -114 -48 -181 -75 -67 -27 -152 -67 -189 -89 -71
-43 -88 -49 -82 -28 7 20 183 112 363 188 183 78 181 77 173 84 -8 9 -369
-127 -424 -160 -27 -16 -27 -15 4 13 50 44 149 90 344 156 72 25 118 51 118
66 0 14 -5 13 -58 -14 -26 -13 -110 -45 -187 -71 -77 -26 -148 -51 -157 -56
-10 -6 -18 -6 -18 -1 0 10 98 57 215 102 158 61 245 107 245 131 0 11 -71 -21
-85 -38 -14 -17 -112 -59 -155 -67 -41 -7 -32 -2 75 44 39 16 63 29 55 30 -37
1 -193 -60 -241 -95 l-54 -38 35 38 c19 20 51 45 70 55 38 19 160 62 226 79
43 11 94 45 94 62 0 5 -10 3 -23 -6 -13 -8 -75 -32 -138 -53 -63 -21 -122 -42
-131 -46 -10 -5 -18 -4 -18 1 0 14 67 48 144 72 83 27 151 58 167 77 21 26 2
26 -35 0 -38 -25 -105 -50 -166 -60 -25 -4 -31 -3 -20 4 8 5 24 10 34 10 26 0
162 69 184 93 9 11 13 18 7 15 -5 -2 -49 -23 -98 -46 -48 -23 -97 -42 -110
-41 -18 0 -16 3 13 17 160 74 200 95 200 103 0 10 -42 29 -65 29 -7 0 -15 -10
-17 -22 -2 -13 -11 -24 -22 -26 -16 -3 -18 0 -12 22 6 26 3 29 -21 19z"/>
<path d="M7598 9361 c-724 -294 -1204 -1048 -1140 -1793 7 -79 13 -152 15
-163 2 -20 -5 -20 -333 -23 -184 -2 -355 0 -380 3 -33 5 -53 16 -77 41 -36 38
-54 31 -22 -10 40 -51 40 -51 443 -56 l379 -5 32 -101 c29 -93 80 -199 119
-249 l16 -20 -7 20 c-3 11 -10 25 -14 31 -12 15 0 24 33 24 46 0 96 26 118 62
42 69 38 137 -12 194 -47 53 -76 64 -172 64 -85 0 -86 0 -92 28 -3 15 -8 34
-10 42 -2 8 -8 69 -14 135 -23 277 41 598 171 856 207 415 528 718 947 896 61
26 112 51 112 55 0 13 -10 10 -112 -31z m-905 -2015 c18 -7 46 -28 61 -47 25
-29 28 -39 24 -89 -6 -86 -48 -130 -123 -130 -38 0 -59 24 -90 100 -26 68 -54
168 -47 174 11 12 143 6 175 -8z"/>
<path d="M1912 9155 c-8 -18 -12 -121 -12 -334 0 -248 -3 -311 -14 -326 -13
-18 -15 -16 -21 27 -4 26 -8 173 -9 326 -1 206 -4 278 -13 275 -19 -7 -23 -42
-23 -213 0 -141 17 -489 25 -498 1 -2 22 10 46 26 71 48 305 168 424 217 117
49 155 70 155 85 0 5 -30 -4 -67 -21 -38 -17 -115 -50 -173 -74 -58 -24 -145
-64 -195 -89 -88 -45 -122 -56 -110 -36 7 11 436 224 475 235 45 14 125 58
112 62 -18 7 -282 -106 -478 -204 -40 -20 -78 -33 -87 -30 -26 10 -35 443 -11
570 7 34 -9 35 -24 2z"/>
<path d="M1755 9050 c-17 -19 -18 -36 -12 -238 4 -119 12 -264 19 -322 l13
-105 6 60 c5 50 6 46 4 -26 -1 -47 -8 -96 -16 -110 l-13 -24 -7 35 c-24 111
-52 392 -53 522 -1 82 -4 148 -7 148 -22 0 -26 -39 -21 -210 3 -102 9 -169 12
-150 4 25 8 7 13 -65 4 -55 16 -153 26 -217 15 -102 14 -154 -3 -138 -11 12
-46 219 -48 284 -1 63 -2 66 -7 26 l-6 -45 -9 50 c-5 28 -12 106 -16 175 l-7
125 0 -125 c-1 -125 12 -322 16 -265 2 17 9 -15 17 -70 20 -150 36 -235 45
-235 4 0 20 11 36 24 33 27 212 129 435 245 176 92 202 110 197 134 -3 14 -53
-7 -269 -115 -146 -72 -282 -142 -302 -155 -44 -27 -48 -28 -48 -8 0 8 4 15 8
15 5 0 49 24 98 53 103 62 270 152 399 215 115 56 175 94 175 110 0 6 -4 12
-8 12 -15 0 -228 -98 -411 -189 -101 -50 -187 -89 -190 -85 -23 22 -53 362
-49 547 2 75 3 137 2 137 0 0 -9 -9 -19 -20z"/>
<path d="M1592 8908 c-9 -9 -12 -71 -12 -217 1 -205 3 -240 35 -441 9 -58 17
-138 18 -177 1 -40 6 -73 11 -73 4 0 38 20 75 43 36 24 122 75 191 112 225
122 355 197 378 218 22 20 30 47 13 47 -11 0 -344 -169 -500 -254 -67 -37
-125 -65 -127 -63 -6 6 -53 222 -65 302 -7 41 -9 162 -7 293 2 122 3 222 3
222 -1 0 -6 -5 -13 -12z"/>
<path d="M1514 8825 c-10 -24 12 -315 42 -570 28 -235 35 -340 26 -365 -8 -22
-10 -18 -16 30 -4 30 -13 93 -21 140 -7 47 -18 135 -25 195 -6 61 -20 195 -30
299 -11 104 -20 193 -20 198 0 5 -4 7 -9 4 -5 -3 -7 -14 -5 -24 2 -9 15 -156
29 -327 13 -170 32 -345 40 -387 9 -43 15 -90 13 -105 -3 -25 -5 -23 -16 17
-7 25 -24 88 -38 140 -28 102 -44 277 -47 527 -1 75 -6 129 -11 126 -9 -6 -1
-355 9 -424 4 -27 3 -30 -5 -14 -7 15 -9 4 -4 -40 8 -85 80 -363 99 -381 16
-17 21 -109 6 -118 -5 -3 -12 11 -16 32 -3 20 -27 98 -52 172 -50 148 -45 100
-69 583 -6 120 -16 156 -29 104 -4 -13 1 -80 9 -149 9 -69 16 -167 16 -218 0
-106 15 -218 36 -274 8 -21 28 -96 45 -165 16 -69 31 -131 34 -138 2 -8 74 34
185 108 100 67 207 136 238 154 222 128 272 165 272 202 0 9 -25 0 -77 -28
-135 -73 -426 -241 -468 -269 -66 -44 -85 -53 -85 -37 0 22 196 146 588 371
59 34 84 55 88 72 9 35 0 39 -33 16 -15 -10 -64 -37 -109 -60 -107 -53 -412
-220 -447 -244 -16 -11 -30 -18 -33 -16 -2 3 -7 34 -10 69 -3 35 -16 132 -29
214 -25 154 -45 386 -45 519 0 71 -12 99 -26 61z"/>
<path d="M7378 8548 c-47 -57 -113 -136 -146 -176 -70 -83 -77 -101 -68 -182
8 -70 -4 -83 -42 -47 -35 32 -64 40 -95 26 -32 -15 -43 -39 -18 -39 11 0 39
-28 72 -72 30 -40 56 -76 57 -81 2 -4 -37 -51 -88 -103 -100 -106 -230 -255
-230 -266 0 -4 91 36 203 88 262 124 343 158 359 151 7 -2 53 -127 102 -276
49 -149 91 -269 93 -267 2 2 -3 30 -12 62 -9 33 -19 110 -22 173 l-6 114 31
-23 c18 -13 34 -22 36 -19 2 2 -3 24 -11 47 -8 24 -12 46 -10 48 3 3 49 -24
103 -59 103 -66 226 -138 209 -120 -5 5 -48 36 -95 68 -166 115 -326 240 -410
321 l-85 83 37 38 c21 21 42 52 47 68 6 17 26 136 46 265 19 129 38 245 40
258 3 12 2 22 -3 22 -5 0 -47 -46 -94 -102z"/>
<path d="M1305 8557 c-17 -66 99 -745 151 -883 22 -60 25 -120 4 -98 -14 15
-57 157 -75 244 -9 47 -34 153 -55 235 -21 83 -46 209 -56 282 -10 72 -22 130
-26 127 -22 -14 12 -226 83 -508 27 -110 49 -219 49 -243 0 -24 4 -43 9 -43 4
0 18 -33 31 -72 12 -40 24 -74 25 -76 2 -2 39 23 82 55 92 68 258 179 428 286
66 42 134 87 151 101 30 24 51 66 34 66 -7 0 -267 -148 -362 -206 -129 -80
-205 -129 -224 -146 -32 -28 -50 -22 -73 26 -32 65 -92 320 -112 476 -6 46
-12 87 -14 90 -2 4 -11 73 -20 156 -9 82 -18 151 -20 153 -2 2 -7 -8 -10 -22z"/>
<path d="M1192 8318 c4 -46 48 -326 79 -503 6 -33 15 -64 20 -69 13 -14 11 -1
-6 64 -8 30 -14 71 -14 90 0 26 8 10 30 -65 16 -55 29 -112 29 -128 0 -15 15
-67 34 -115 18 -48 41 -109 51 -135 10 -26 21 -49 25 -52 3 -2 42 23 86 56 44
33 186 131 314 217 178 120 236 165 243 186 5 15 7 29 5 32 -3 2 -35 -15 -71
-38 -37 -24 -111 -70 -164 -103 -164 -99 -356 -226 -385 -252 l-26 -25 -22 49
c-29 64 -70 173 -70 185 0 5 4 7 9 4 10 -6 -59 216 -82 267 -8 18 -28 112 -43
209 -16 98 -33 178 -37 178 -5 0 -7 -24 -5 -52z"/>
<path d="M3816 8358 c-2 -7 -9 -52 -16 -99 -6 -47 -15 -90 -19 -97 -6 -11
-228 -92 -251 -92 -17 0 6 37 101 157 49 62 89 117 89 123 0 30 -302 -73 -475
-160 -290 -147 -534 -336 -748 -580 -177 -202 -359 -465 -461 -668 -90 -180
-219 -534 -238 -657 -6 -38 -18 -95 -28 -125 -16 -54 -19 -56 -90 -93 -41 -20
-105 -64 -144 -96 -84 -69 -125 -96 -132 -88 -14 14 16 59 116 172 118 134
145 171 132 178 -4 3 -66 -50 -138 -117 -71 -68 -132 -122 -137 -119 -15 9 32
70 161 204 81 85 132 146 132 159 0 11 -3 20 -8 20 -4 0 -73 -62 -152 -139
-80 -76 -146 -138 -147 -137 -1 0 1 15 4 31 4 22 47 71 168 190 145 143 188
196 172 211 -6 6 -116 -86 -259 -218 -58 -54 -112 -98 -118 -98 -10 0 -11 -16
-6 -65 6 -63 6 -65 -16 -65 l-23 0 3 237 c3 256 16 501 31 579 19 96 41 241
41 270 0 18 -16 50 -40 84 -80 112 -267 425 -301 505 -13 30 -27 55 -31 55 -5
0 -8 -16 -8 -36 0 -26 12 -57 42 -103 23 -36 86 -142 141 -236 54 -93 108
-182 118 -196 26 -37 61 -121 53 -128 -7 -7 -13 1 -95 124 -159 236 -196 296
-236 375 l-43 84 0 -45 c0 -40 12 -65 109 -219 123 -199 168 -268 210 -325 16
-22 32 -53 36 -70 l7 -30 -22 34 c-11 18 -60 86 -108 150 -113 150 -194 266
-221 316 l-21 40 0 -42 c0 -64 35 -123 296 -496 31 -43 54 -83 52 -88 -2 -5
-31 28 -66 73 -54 73 -192 250 -260 334 l-23 29 4 -46 c5 -53 44 -116 174
-276 83 -102 148 -197 159 -231 4 -9 -7 1 -22 24 -34 47 -251 300 -283 328
-21 19 -21 19 -21 -10 0 -35 31 -85 129 -209 134 -169 154 -196 150 -200 -3
-2 -50 46 -104 107 -55 61 -111 122 -125 135 -25 23 -25 23 -28 2 -5 -27 31
-81 149 -226 53 -65 102 -129 108 -143 l12 -25 -21 25 c-12 14 -35 41 -52 60
-68 82 -162 170 -170 162 -19 -19 8 -64 123 -202 65 -78 119 -145 119 -148 0
-4 -48 44 -106 106 -103 109 -138 130 -114 68 5 -15 45 -71 88 -124 97 -120
135 -177 130 -194 -3 -8 -10 -3 -19 14 -16 30 -160 196 -171 197 -5 1 -8 -9
-8 -22 0 -23 16 -48 138 -216 l73 -100 0 -73 c-1 -163 15 -418 29 -468 5 -18
8 -36 5 -38 -5 -5 -25 43 -25 61 -1 7 -8 23 -16 37 -10 17 -13 18 -8 5 3 -11
8 -37 11 -58 2 -21 13 -58 23 -82 25 -58 40 -115 31 -115 -4 0 -13 17 -19 38
-7 20 -21 48 -32 62 -16 21 -15 13 9 -55 15 -44 33 -90 40 -103 7 -13 10 -31
8 -40 -3 -13 -6 -12 -14 8 -6 14 -18 32 -27 39 -13 11 -13 5 3 -40 10 -30 28
-78 40 -107 29 -72 26 -88 -5 -29 -14 27 -28 47 -30 44 -7 -7 20 -96 40 -135
20 -40 20 -48 -1 -31 -15 13 -16 11 -10 -11 4 -14 7 -29 7 -33 0 -5 5 -5 12
-1 8 5 9 2 5 -9 -6 -15 3 -44 58 -202 10 -27 21 -58 24 -69 5 -13 14 2 33 55
14 41 29 83 33 94 l8 20 -16 -20 c-16 -20 -16 -19 -10 5 3 14 14 54 24 89 21
69 24 94 9 71 -16 -25 -11 -1 9 43 23 51 36 97 27 97 -4 0 -18 -24 -31 -52
-14 -29 -22 -42 -19 -28 3 14 6 46 8 70 2 25 6 72 9 105 6 53 6 56 -4 20 -5
-22 -14 -56 -19 -76 -6 -20 -10 -46 -10 -57 0 -11 -5 -24 -11 -28 -16 -9 -7
143 9 171 7 11 16 32 22 48 5 15 14 27 20 27 6 0 8 -4 5 -10 -3 -5 0 -7 8 -4
22 8 257 -131 257 -153 0 -6 -7 -42 -16 -79 -21 -92 -59 -369 -84 -609 -33
-325 -77 -1098 -83 -1440 l-2 -120 -45 0 -45 0 -7 105 c-3 58 -12 278 -18 490
-6 212 -16 480 -21 595 -6 116 -14 282 -17 369 -5 123 -10 160 -21 164 -15 5
-16 46 19 -818 11 -256 22 -565 26 -688 l7 -223 -34 3 c-41 4 -39 -4 -69 308
-34 344 -89 673 -160 947 -34 133 -37 163 -15 163 22 0 29 25 13 53 -7 13 -45
52 -85 85 -39 34 -75 67 -79 74 -8 12 51 -35 138 -111 21 -19 42 -31 45 -27 8
8 -12 198 -32 306 -27 149 -135 659 -174 825 -66 284 -153 501 -292 731 -74
123 -70 123 -129 -2 -139 -296 -193 -528 -194 -844 -1 -252 27 -395 109 -560
83 -165 191 -274 411 -411 116 -72 217 -157 232 -196 38 -97 118 -503 157
-799 20 -150 43 -426 35 -416 -4 4 -26 61 -50 127 -66 184 -128 334 -162 395
-62 111 -190 256 -281 318 -91 63 -310 163 -324 148 -12 -12 142 -302 246
-466 85 -133 118 -174 233 -290 105 -107 142 -152 176 -215 43 -78 114 -274
126 -347 l7 -37 -273 -3 c-240 -3 -277 -5 -306 -21 -94 -51 -94 -183 0 -234
31 -17 121 -18 1883 -18 1018 0 1918 2 2000 5 130 5 -713 9 -3240 14 -570 1
-613 2 -638 19 -69 45 -73 141 -8 184 33 22 41 23 235 22 492 -2 1745 -25
1752 -31 4 -5 5 -10 2 -13 -3 -3 -318 -8 -702 -12 -494 -4 -696 -9 -693 -17 4
-13 47 -14 842 -24 550 -7 590 -8 593 -24 3 -17 -16 -18 -301 -18 -463 0
-1057 -12 -1051 -22 3 -4 482 -8 1065 -8 712 0 1125 -4 1257 -12 263 -16 572
-16 821 0 166 11 633 13 2530 8 2056 -6 2328 -8 2349 -22 33 -22 46 -61 31
-96 -26 -62 70 -58 -1374 -59 -726 -1 -1333 -4 -1350 -8 -38 -9 1216 -21 2029
-20 446 0 620 3 646 12 40 14 80 68 80 109 0 18 -12 41 -34 66 l-34 37 -1213
3 c-667 1 -1217 6 -1222 11 -5 5 15 22 45 39 29 16 73 51 98 76 l44 46 1339 0
c1460 0 1369 -4 1416 56 42 53 16 144 -51 181 -31 17 -105 18 -1400 20 -1341
1 -1368 2 -1395 21 -54 38 -117 64 -211 88 -53 13 -97 26 -99 28 -2 2 24 24
59 49 136 96 207 210 216 342 11 166 -99 331 -261 391 -75 28 -234 24 -392 -9
-717 -151 -999 -195 -1361 -213 -101 -5 -143 -3 -148 5 -4 6 9 39 28 73 55
100 98 236 151 476 8 32 22 27 35 -12 23 -70 84 -150 136 -178 69 -37 198 -58
362 -58 163 0 298 19 498 70 349 89 570 176 704 278 131 100 294 282 353 392
17 33 31 47 53 51 60 13 112 8 194 -21 47 -17 116 -33 153 -37 57 -5 67 -8 61
-22 -4 -9 -9 -31 -12 -48 -3 -27 0 -34 21 -44 32 -15 54 -7 69 26 10 22 8 30
-10 54 -11 16 -18 31 -15 35 4 3 53 6 111 6 95 0 104 -1 97 -18 -18 -40 -16
-68 4 -86 44 -40 112 16 79 66 -8 13 -15 27 -14 33 1 6 43 10 106 10 l105 0
-2 141 c-2 179 -28 364 -52 364 -9 0 -54 -9 -101 -20 -47 -11 -100 -20 -119
-20 -33 0 -33 0 -17 25 21 32 20 48 -4 70 -25 23 -67 13 -82 -20 -9 -19 -7
-29 7 -51 14 -21 15 -28 4 -35 -16 -9 -144 -39 -170 -39 -20 0 -25 15 -9 25
14 9 13 58 -2 73 -19 19 -66 15 -78 -7 -16 -30 -12 -51 13 -71 22 -18 22 -19
2 -26 -11 -3 -63 -25 -115 -47 -87 -36 -112 -42 -297 -65 -112 -13 -210 -22
-218 -18 -9 3 -15 18 -15 36 0 51 -26 90 -60 90 -37 0 -57 -21 -70 -73 -17
-65 -18 -66 -42 -72 -13 -3 -162 -21 -333 -40 -170 -19 -427 -48 -570 -65
-143 -17 -269 -29 -280 -28 -22 3 -27 20 -49 196 -18 136 -36 192 -94 290 -39
66 -40 69 -45 187 -14 334 -104 465 -515 750 -126 87 -147 110 -158 169 -8 44
-21 44 123 6 126 -34 165 -15 178 86 4 33 18 93 31 135 l24 76 56 6 c31 3 61
10 66 15 6 6 -4 63 -27 151 l-37 141 26 31 c25 29 26 36 26 144 l0 113 50 17
c68 23 103 54 130 117 27 62 24 132 -9 195 l-20 40 -68 1 c-82 0 -132 18 -369
130 -94 45 -205 90 -245 102 -134 37 -280 19 -364 -45 -20 -16 -54 -54 -75
-86 -27 -38 -48 -59 -67 -63 -91 -23 -155 -119 -173 -260 -14 -111 5 -334 52
-594 l22 -123 -45 -45 c-60 -61 -98 -77 -289 -123 -178 -43 -297 -77 -570
-164 -96 -30 -179 -51 -183 -47 -13 12 13 56 173 295 184 276 227 344 363 580
211 365 304 603 351 897 9 54 16 102 16 108 0 14 -20 12 -24 -2z m-156 -46 c0
-4 -21 -37 -47 -72 l-47 -65 -10 44 c-12 54 -2 72 50 88 49 14 54 15 54 5z
m-130 -95 c0 -47 -6 -75 -23 -107 -38 -73 -47 -64 -47 49 0 96 1 102 23 111
43 17 47 13 47 -53z m-92 -72 c3 -88 2 -99 -23 -140 -14 -25 -30 -45 -34 -45
-10 0 -21 100 -21 192 0 62 2 70 23 78 50 20 52 16 55 -85z m-105 48 c3 -5 8
-66 12 -138 l7 -130 -30 -38 c-17 -21 -33 -33 -37 -28 -7 12 -24 194 -25 263
0 42 3 49 28 62 31 17 39 19 45 9z m-84 -204 c12 -161 12 -162 -11 -205 -38
-72 -40 -67 -63 126 -22 182 -21 202 13 222 15 10 32 18 38 18 7 0 15 -58 23
-161z m521 125 c0 -34 -98 -78 -255 -114 -27 -6 -58 -13 -68 -16 -16 -5 -17
-3 -8 13 11 22 43 36 191 86 104 34 140 42 140 31z m-625 -106 c3 -46 13 -126
20 -178 13 -92 13 -97 -8 -140 -12 -25 -26 -45 -32 -44 -13 1 -52 205 -61 320
l-7 90 34 21 c18 12 36 20 40 17 4 -2 10 -41 14 -86z m605 22 c0 -31 -36 -47
-182 -84 -152 -38 -182 -44 -185 -33 -10 27 5 33 147 71 52 14 120 34 150 44
71 25 70 25 70 2z m-701 -107 c7 -60 19 -139 27 -176 20 -100 18 -153 -7 -178
-14 -14 -24 -18 -31 -11 -11 11 -50 200 -70 336 l-12 88 27 24 c47 40 52 33
66 -83z m-84 -118 c14 -83 33 -181 42 -219 15 -60 15 -71 2 -94 -34 -60 -51
-31 -98 161 -17 67 -35 153 -42 191 l-12 70 33 29 c18 16 36 25 41 20 5 -5 20
-76 34 -158z m765 151 c0 -37 -63 -60 -305 -111 -134 -29 -125 -27 -125 -17 0
20 75 53 165 71 55 12 136 32 180 45 44 14 81 25 83 25 1 1 2 -5 2 -13z m-866
-177 c14 -63 39 -162 56 -222 16 -59 30 -114 30 -123 0 -18 -37 -74 -49 -74
-12 0 -131 432 -131 473 0 10 61 69 66 64 2 -2 15 -55 28 -118z m836 91 c-6
-12 -23 -25 -37 -31 -88 -33 -409 -106 -420 -95 -4 3 2 16 14 27 14 15 55 28
139 45 66 13 155 34 199 48 103 32 119 33 105 6z m-916 -176 c89 -309 100
-354 90 -381 -22 -63 -45 -25 -107 177 -74 240 -81 289 -45 314 12 9 23 14 25
12 2 -1 18 -56 37 -122z m896 117 c0 -24 -41 -53 -100 -70 -95 -27 -389 -85
-396 -79 -10 10 20 49 41 53 11 2 63 11 115 20 52 9 145 32 205 50 123 36 135
39 135 26z m-924 -364 c19 -71 42 -144 51 -163 14 -29 15 -37 3 -59 -7 -14
-17 -22 -21 -18 -16 17 -125 330 -165 474 -2 9 6 29 18 44 l22 29 28 -90 c16
-49 44 -147 64 -217z m884 274 c0 -14 -27 -39 -48 -45 -141 -41 -400 -96 -454
-96 -23 0 -23 15 0 38 11 11 48 21 112 30 52 7 151 28 220 46 134 36 170 41
170 27z m-1040 -63 c0 -7 37 -125 81 -261 59 -179 79 -251 71 -259 -8 -8 -14
-3 -22 17 -6 16 -25 61 -42 99 -38 88 -128 349 -128 374 0 19 18 42 32 42 4 0
8 -6 8 -12z m995 -28 c-20 -38 -28 -42 -216 -80 -168 -35 -329 -50 -329 -32 0
22 57 40 182 56 70 9 178 31 240 50 146 43 142 43 123 6z m-1015 -180 c27 -80
67 -190 90 -244 41 -100 47 -141 21 -141 -9 0 -25 31 -41 81 -15 44 -35 96
-44 115 -18 39 -84 218 -98 267 -10 36 -2 75 14 70 5 -2 32 -69 58 -148z m978
98 c-18 -52 -199 -96 -465 -113 -100 -6 -111 -1 -67 34 21 17 41 21 98 21 71
1 153 14 301 49 97 23 138 26 133 9z m-1045 -139 c15 -41 56 -148 92 -237 49
-122 63 -167 56 -180 -8 -15 -11 -13 -21 13 -6 17 -31 75 -55 130 -23 55 -56
134 -73 177 -17 42 -40 97 -51 121 -24 53 -26 68 -9 85 15 15 25 -2 61 -109z
m2427 82 c45 -22 106 -45 136 -51 39 -8 54 -16 55 -28 4 -86 3 -190 -3 -204
-6 -16 -22 -18 -119 -18 -175 0 -236 -29 -146 -70 56 -26 91 -25 154 4 39 18
54 22 61 13 13 -16 72 -258 66 -269 -3 -4 -32 -8 -64 -8 -57 0 -60 -1 -66 -27
-3 -16 -13 -53 -21 -83 -8 -30 -19 -83 -23 -118 -5 -34 -14 -69 -20 -77 -32
-39 -171 -2 -339 88 -160 86 -200 137 -201 254 l0 62 -56 36 c-88 57 -117 149
-75 242 21 46 69 78 105 69 11 -3 39 -24 61 -47 34 -36 36 -40 12 -25 -42 26
-46 11 -7 -29 36 -37 32 -44 -10 -20 -14 8 -29 14 -34 15 -16 0 15 -28 44 -40
17 -7 30 -16 30 -21 0 -5 -13 -3 -30 6 -51 27 -54 16 -6 -26 62 -55 58 -69 -6
-24 -49 34 -51 35 -18 5 114 -103 109 -103 150 -10 51 115 85 157 173 214 100
64 123 101 114 178 -3 26 -4 48 -2 48 2 0 40 -18 85 -39z m-1429 -29 c-17 -31
-45 -49 -96 -61 -116 -26 -447 -42 -460 -22 -3 5 2 17 11 25 12 13 41 16 147
16 131 1 241 15 327 43 65 21 83 21 71 -1z m-955 -337 c35 -88 64 -170 64
-183 0 -48 -23 -13 -67 98 -101 259 -132 325 -134 290 0 -8 -8 8 -18 35 -12
36 -14 58 -8 78 9 27 11 25 54 -65 25 -51 73 -165 109 -253z m-139 127 c23
-51 43 -97 43 -102 0 -6 4 -10 10 -10 9 0 40 -62 66 -135 8 -22 17 -69 19
-105 l4 -65 -28 70 c-16 39 -62 140 -103 226 -94 194 -104 224 -87 245 12 14
14 14 23 -7 5 -13 29 -66 53 -117z m1043 118 c-25 -47 -45 -51 -306 -60 -137
-5 -250 -7 -252 -6 -8 9 13 37 32 41 11 2 104 6 206 9 105 3 211 11 245 19 86
21 88 21 75 -3z m-1137 -87 c8 -21 50 -110 92 -198 89 -184 128 -286 119 -309
-11 -28 -22 -18 -42 37 -11 28 -51 115 -89 192 -117 239 -136 289 -116 308 13
13 21 6 36 -30z m1085 5 c-3 -7 -16 -18 -29 -25 -29 -14 -412 -35 -476 -26
-38 5 -41 8 -32 24 8 17 23 19 112 20 56 1 154 5 217 9 195 11 212 11 208 -2z
m-1142 -60 c3 -12 46 -103 94 -202 110 -227 142 -305 134 -329 -3 -10 -10 -15
-14 -11 -5 5 -65 122 -135 260 -117 233 -125 252 -114 277 15 33 25 34 35 5z
m1104 -6 c0 -5 -9 -17 -21 -28 -19 -17 -42 -19 -280 -22 -162 -2 -259 0 -259
6 0 31 36 37 234 42 111 4 229 7 264 8 34 1 62 -2 62 -6z m-1031 -331 c62
-123 111 -233 109 -244 -6 -40 -25 -26 -58 44 -19 40 -63 120 -97 178 -89 150
-126 242 -113 277 l11 28 18 -30 c10 -16 68 -130 130 -253z m978 254 c13 -42
-70 -55 -344 -55 -222 0 -232 2 -197 41 14 16 30 18 128 13 61 -3 172 -1 246
4 155 11 162 10 167 -3z m-1057 -306 c0 -6 4 -8 9 -4 8 4 141 -247 141 -267 0
-4 -5 -19 -11 -35 -11 -28 -11 -27 -53 57 -23 47 -79 153 -124 235 -96 175
-110 212 -92 245 12 22 16 16 71 -99 33 -67 59 -126 59 -132z m1018 229 c-2
-6 -16 -21 -31 -32 -24 -18 -49 -20 -269 -26 -134 -3 -249 -4 -255 -2 -19 6
-16 40 5 51 9 5 111 10 227 10 115 1 211 4 214 6 2 3 29 5 59 5 37 0 52 -4 50
-12z m-985 -449 c41 -78 67 -138 67 -158 0 -17 -3 -31 -7 -31 -8 0 -152 250
-237 411 -49 93 -52 104 -34 143 11 25 14 19 78 -107 37 -72 97 -189 133 -258z
m925 359 c-2 -6 -15 -20 -29 -29 -21 -16 -53 -18 -279 -20 -270 -2 -280 0
-228 44 18 15 47 17 280 17 196 0 259 -3 256 -12z m1093 -33 c24 -9 47 -21 51
-28 4 -7 8 -55 8 -107 0 -52 7 -133 15 -180 26 -141 22 -230 -13 -340 -45
-141 -55 -202 -51 -324 l4 -110 -55 -38 c-30 -20 -57 -37 -60 -37 -4 -1 -16
56 -29 127 -36 196 -110 470 -186 687 l-15 40 25 -28 c32 -36 32 -17 0 51 -14
30 -25 56 -25 59 0 3 14 -7 31 -21 32 -27 45 -31 52 -18 3 4 -10 18 -29 32
-18 14 -34 28 -34 33 0 13 35 8 58 -9 35 -24 35 -12 1 30 -41 49 -30 58 18 13
47 -45 61 -38 26 14 -14 22 -23 42 -20 45 3 4 21 -3 40 -15 46 -28 52 -26 28
8 -29 40 -27 44 19 36 l39 -7 -9 31 c-8 29 -7 31 14 25 17 -4 25 1 34 20 14
31 9 30 63 11z m-1733 -76 c-3 -33 -4 -33 -8 8 -3 23 -2 39 3 34 5 -5 7 -24 5
-42z m592 33 c0 -5 -9 -18 -19 -29 -18 -19 -35 -21 -153 -26 -73 -3 -190 -6
-260 -6 -117 0 -128 2 -128 18 0 42 20 44 398 49 89 1 162 -2 162 -6z m-1026
-175 c47 -89 108 -202 135 -252 27 -49 47 -93 45 -97 -3 -5 -14 -8 -24 -8 -14
0 -28 18 -48 58 -16 31 -62 111 -102 177 -89 147 -120 211 -120 251 0 32 8 47
21 39 4 -3 46 -78 93 -168z m966 90 c0 -8 -9 -22 -21 -33 -19 -17 -42 -19
-275 -22 -146 -2 -254 0 -254 5 0 5 6 18 14 29 13 18 32 19 243 24 125 3 243
7 261 8 21 1 32 -3 32 -11z m-975 -252 c90 -150 120 -216 103 -226 -7 -5 -16
-5 -20 -1 -20 20 -176 277 -205 338 -30 62 -32 74 -22 102 l11 32 34 -67 c18
-38 63 -117 99 -178z m916 156 c-23 -43 -32 -44 -287 -47 -230 -3 -244 -2
-244 15 0 42 15 45 343 48 187 2 197 1 188 -16z m906 -106 c13 -55 39 -145 58
-200 80 -235 128 -442 159 -680 20 -152 20 -185 1 -185 -8 0 -15 4 -15 9 0 21
-72 428 -90 514 -25 114 -71 267 -80 267 -4 0 -18 -15 -31 -34 -65 -90 -119
-133 -119 -94 0 5 31 49 69 97 l69 88 -34 112 c-34 113 -45 216 -23 209 7 -2
23 -49 36 -103z m-1865 -143 c64 -93 99 -165 86 -174 -7 -4 -16 -8 -19 -8 -9
0 -34 31 -55 70 -10 19 -25 41 -32 48 -7 8 -24 37 -39 65 -14 29 -37 69 -51
91 -33 54 -43 92 -31 124 10 25 13 22 61 -73 28 -55 64 -119 80 -143z m2350
156 c17 -54 23 -97 23 -163 0 -81 -3 -95 -28 -138 -32 -54 -48 -58 -21 -6 28
55 23 192 -12 357 -2 12 0 22 5 22 6 0 20 -33 33 -72z m-1509 23 l69 -6 -22
-27 -21 -28 -244 0 c-134 0 -246 4 -249 9 -3 5 2 18 12 30 15 18 30 21 127 24
192 5 258 5 328 -2z m757 -5 c0 -17 -62 -30 -93 -20 -19 6 -16 9 23 20 61 16
70 16 70 0z m816 -63 c54 -122 41 -201 -50 -297 -29 -31 -56 -56 -59 -56 -17
0 -5 36 14 45 12 6 36 29 53 53 26 37 31 54 34 117 3 47 -2 92 -12 128 -18 61
-19 67 -10 67 3 0 16 -26 30 -57z m-2503 -119 c20 -34 37 -65 37 -68 0 -4 16
-32 36 -63 28 -44 33 -58 22 -64 -26 -18 -44 -2 -90 81 -97 172 -108 202 -91
246 5 15 11 9 27 -26 12 -25 38 -73 59 -106z m1635 134 c56 -2 63 -5 68 -25 4
-13 4 -30 0 -38 -9 -23 -84 -19 -168 11 -40 14 -81 28 -90 31 -10 3 -29 -2
-43 -11 -33 -21 -55 -21 -33 0 20 21 122 44 168 38 19 -2 63 -5 98 -6z m-779
-75 c50 -58 76 -135 66 -196 l-8 -42 -19 50 c-26 66 -99 185 -114 185 -7 0
-14 -5 -16 -12 -3 -9 -28 -11 -89 -8 -46 3 -123 5 -172 5 -91 0 -98 4 -71 43
15 21 20 22 199 22 l183 0 41 -47z m91 38 c0 -5 -11 -16 -24 -24 -21 -14 -26
-14 -45 -1 -33 23 -25 34 24 34 25 0 45 -4 45 -9z m380 -452 c0 -424 -1 -450
-17 -447 -17 3 -18 34 -21 451 -2 442 -2 447 18 447 20 0 20 -6 20 -451z m161
420 c19 -6 50 -18 69 -27 24 -12 56 -16 103 -15 58 2 67 0 67 -15 0 -9 3 -27
6 -39 6 -22 4 -23 -51 -23 -36 0 -79 9 -118 24 -34 13 -70 26 -80 30 -24 8
-66 -10 -99 -42 l-28 -26 0 51 c0 44 4 54 28 72 31 23 55 26 103 10z m-1556
-107 c25 -46 42 -89 39 -95 -4 -7 -3 -9 1 -4 5 4 19 -12 32 -34 22 -39 22 -42
6 -55 -15 -12 -20 -11 -31 4 -25 32 -100 171 -106 197 -6 23 2 80 10 73 1 -2
23 -41 49 -86z m1265 79 c0 -26 -219 -157 -234 -140 -2 2 -6 21 -9 42 -4 27
-2 37 7 37 7 0 60 16 117 35 115 38 119 39 119 26z m-505 -31 c-3 -5 -15 -10
-26 -10 -11 0 -43 -12 -72 -27 -43 -22 -66 -27 -135 -27 -89 -1 -98 6 -66 52
14 21 22 22 160 22 94 0 143 -4 139 -10z m134 -74 c79 -121 86 -156 86 -411 0
-201 -1 -220 -17 -223 -17 -3 -18 10 -18 175 0 267 -11 314 -102 438 -60 81
-62 90 -26 92 26 2 34 -6 77 -71z m411 26 c0 -35 -5 -42 -64 -85 -35 -26 -79
-54 -98 -61 -47 -20 -128 -31 -128 -18 0 23 20 62 32 62 24 0 133 57 188 99
30 22 58 41 62 41 5 0 8 -17 8 -38z m-2510 -64 c11 -21 20 -45 20 -55 0 -27
-54 -243 -61 -243 -3 0 -7 28 -8 63 -1 34 -6 105 -11 157 -5 52 -10 113 -10
135 l0 40 25 -30 c14 -16 34 -47 45 -67z m2833 42 c55 -21 96 -30 136 -30 60
0 70 -8 71 -57 0 -24 -118 -15 -185 14 -96 41 -123 41 -172 -1 -22 -20 -44
-36 -47 -36 -3 0 -6 15 -6 33 0 26 9 39 46 70 26 20 54 37 63 37 9 0 52 -13
94 -30z m-827 -33 c23 -29 45 -67 49 -85 3 -18 10 -30 15 -27 19 12 33 -72 41
-256 10 -197 5 -249 -23 -249 -10 0 -12 23 -10 97 4 112 -12 304 -30 366 -6
23 -23 60 -37 82 -13 22 -25 42 -25 45 -1 12 -54 48 -76 52 l-25 5 25 11 c42
18 53 13 96 -41z m-2083 -199 c8 -65 12 -116 10 -115 -15 15 -83 131 -93 158
-11 31 -9 41 21 113 l34 79 8 -59 c4 -33 13 -112 20 -176z m1207 222 c0 -5 22
-47 49 -92 47 -78 52 -108 18 -95 -24 9 -87 130 -87 165 0 18 5 32 10 32 6 0
10 -4 10 -10z m750 -10 c0 -5 -4 -10 -10 -10 -5 0 -10 5 -10 10 0 6 5 10 10
10 6 0 10 -4 10 -10z m-81 -35 c50 -46 123 -156 148 -225 27 -73 43 -179 43
-289 l0 -91 -30 0 c-29 0 -30 1 -30 48 0 83 -20 225 -40 294 -23 77 -118 212
-181 258 -44 31 -41 40 13 40 29 0 47 -8 77 -35z m2259 15 l23 -19 -29 -58
c-16 -32 -47 -110 -68 -173 l-39 -115 1 -223 c1 -194 -1 -222 -13 -209 -22 22
-35 149 -31 307 l4 145 57 166 c31 91 57 173 57 182 0 22 9 21 38 -3z m-2132
-25 c15 -14 23 -25 18 -25 -5 0 -4 -4 1 -8 29 -21 49 -58 61 -114 19 -89 16
-114 -5 -43 -19 64 -47 117 -94 178 -33 42 -22 50 19 12z m-201 -56 c121 -117
161 -219 172 -430 6 -118 6 -119 -18 -128 -34 -13 -39 -6 -39 52 -2 214 -56
357 -187 490 -48 49 -60 66 -51 75 24 24 52 11 123 -59z m787 11 c-2 -22 -8
-40 -13 -40 -5 0 -18 -9 -29 -20 -11 -11 -27 -20 -35 -20 -8 0 -15 -4 -15 -9
0 -17 -119 -62 -158 -59 -35 3 -37 5 -37 38 l0 35 57 7 c64 8 102 25 167 75
58 43 67 42 63 -7z m332 4 c54 -20 88 -26 144 -26 l72 1 0 -28 c0 -24 -6 -31
-31 -40 -49 -17 -78 -14 -177 19 -50 17 -96 30 -101 30 -5 0 -35 -23 -66 -51
-30 -29 -57 -50 -59 -48 -2 2 -1 23 3 46 5 34 15 48 56 82 28 22 58 40 69 41
10 0 51 -12 90 -26z m1342 -123 c-3 -47 -7 -242 -8 -433 -1 -192 -4 -348 -7
-348 -2 0 -25 19 -50 43 -25 23 -63 56 -84 72 -37 29 -39 35 -47 105 -15 126
-12 335 6 404 20 81 58 185 91 251 l26 54 40 -31 39 -32 -6 -85z m-2569 87
c60 -57 125 -146 150 -206 20 -48 43 -198 43 -284 0 -65 -1 -68 -24 -68 -18 0
-24 6 -24 23 0 42 -31 222 -46 273 -21 66 -84 163 -152 231 -30 31 -54 56 -52
58 6 4 43 24 46 25 2 0 28 -24 59 -52z m-473 -85 c-21 -15 -31 -16 -39 -4 -9
15 -24 105 -18 113 2 5 20 -15 40 -44 34 -49 35 -52 17 -65z m-1073 59 c9 -33
8 -49 -14 -118 -14 -43 -35 -117 -48 -164 l-24 -85 -5 65 c-3 36 1 94 8 130
17 91 53 210 63 210 5 0 13 -17 20 -38z m3849 -39 c0 -54 -3 -73 -10 -63 -13
20 -13 140 0 140 6 0 10 -32 10 -77z m-2393 26 c141 -134 198 -272 191 -458
-4 -88 -23 -108 -33 -34 -17 120 -46 240 -71 290 -31 59 -115 162 -164 198
-29 21 -30 24 -13 34 30 18 46 12 90 -30z m1671 -34 c-23 -47 -34 -61 -40 -50
-6 9 3 31 28 65 20 27 38 50 40 50 2 0 -11 -29 -28 -65z m1066 6 c-5 -9 -11
-212 -14 -451 -4 -239 -8 -436 -8 -437 -1 -2 -9 -3 -17 -3 -13 0 -15 49 -15
378 0 209 3 420 6 470 l7 91 24 -16 c17 -11 22 -21 17 -32z m-1003 0 c-21 -50
-63 -121 -71 -121 -18 0 -11 31 15 64 14 18 30 47 36 65 8 22 14 29 19 20 5
-7 5 -19 1 -28z m-1780 -58 c99 -103 124 -150 143 -264 28 -170 29 -189 7
-189 -15 0 -21 9 -26 38 -18 116 -28 163 -46 220 -11 34 -26 62 -31 62 -6 0
-8 3 -5 6 4 4 -1 14 -11 23 -10 9 -32 37 -49 62 -17 25 -49 61 -71 81 -22 20
-38 39 -34 42 17 18 47 -3 123 -81z m2245 60 c-21 -36 -86 -194 -86 -208 0
-19 50 64 91 151 22 47 43 84 46 81 13 -14 -13 -92 -51 -155 -24 -38 -51 -93
-61 -123 -10 -30 -20 -61 -23 -69 -3 -8 -9 27 -14 78 -10 115 -1 153 51 212
22 25 41 48 41 53 0 4 5 7 11 7 6 0 4 -11 -5 -27z m-882 -7 c94 -36 143 -41
194 -21 48 20 48 20 57 -18 6 -24 3 -29 -29 -42 -51 -22 -114 -19 -203 10 -43
14 -85 25 -93 25 -8 0 -42 -25 -75 -56 l-60 -56 -3 31 c-2 17 0 37 5 44 14 25
113 107 128 107 8 0 44 -11 79 -24z m-324 -21 c0 -30 -6 -38 -42 -61 -53 -34
-107 -52 -185 -62 l-63 -9 0 39 c0 35 2 38 23 33 29 -8 127 24 199 65 29 16
56 30 61 30 4 0 7 -16 7 -35z m-2651 -56 c29 -45 59 -97 67 -115 15 -36 19
-95 7 -93 -17 1 -153 199 -153 221 0 31 11 68 19 68 4 0 31 -37 60 -81z m1530
-5 c92 -100 139 -203 156 -339 10 -79 -8 -65 -36 28 -34 113 -131 280 -171
293 -31 10 -33 -4 -6 -34 33 -33 113 -185 123 -229 9 -46 -10 -42 -35 8 -61
118 -146 225 -203 256 -46 24 -44 6 5 -45 105 -110 134 -178 37 -88 -65 61
-110 87 -177 105 -23 7 -40 16 -37 20 13 22 205 100 247 100 20 1 42 -16 97
-75z m2411 -1 c-11 -32 -29 -76 -40 -98 -11 -22 -39 -83 -63 -135 -25 -52 -59
-114 -76 -138 -36 -49 -63 -48 -32 1 42 66 63 112 87 183 13 40 43 101 67 136
23 35 49 78 57 97 23 56 23 16 0 -46z m-2730 42 c0 -15 -18 -30 -27 -22 -2 3
-2 15 2 26 7 23 25 19 25 -4z m3323 -57 l67 -63 -20 -125 c-12 -69 -29 -174
-40 -235 -10 -60 -24 -145 -31 -187 -12 -79 -21 -93 -88 -133 -12 -7 -13 52
-9 391 3 219 9 407 13 416 9 23 22 15 108 -64z m-4280 32 c22 -51 21 -57 -5
-116 -31 -71 -98 -273 -98 -298 0 -17 -2 -18 -10 -6 -23 35 -10 134 37 297 26
90 50 163 53 163 3 0 13 -18 23 -40z m3147 1 c-6 -12 -8 -27 -4 -33 4 -6 3 -8
-4 -4 -6 4 -16 -8 -23 -29 -13 -34 -29 -47 -29 -24 0 16 61 121 67 115 2 -2 0
-14 -7 -25z m-414 -41 c97 -31 132 -33 202 -12 62 20 62 20 73 1 13 -25 -16
-51 -80 -74 -62 -21 -88 -19 -181 15 l-81 30 -52 -48 c-29 -27 -63 -58 -77
-71 l-25 -22 -3 36 c-3 33 2 41 44 78 27 23 57 52 69 64 25 27 37 28 111 3z
m1014 16 c0 -28 -87 -163 -97 -152 -7 6 79 155 90 156 4 0 7 -2 7 -4z m-1365
-53 c-9 -65 -25 -79 -25 -22 0 38 13 69 28 69 2 0 1 -21 -3 -47z m-2664 -55
c110 -140 118 -152 124 -198 l7 -45 -74 75 c-40 41 -90 96 -111 122 -35 43
-38 51 -32 88 4 22 10 40 14 40 4 0 36 -37 72 -82z m759 56 c14 -37 13 -44
-11 -44 -28 0 -21 -34 7 -38 15 -2 25 -15 33 -41 13 -47 14 -51 1 -51 -5 0
-13 14 -18 32 -15 58 -32 45 -33 -24 -1 -60 -2 -61 -10 -23 -4 22 -8 79 -8
128 -1 71 2 87 14 87 9 0 20 -12 25 -26z m2687 -6 c-3 -18 -11 -46 -17 -63
-12 -30 -12 -30 -23 -8 -8 18 -6 32 8 63 22 48 40 53 32 8z m-862 -53 l-13
-50 -1 47 c-1 29 4 48 12 51 17 6 17 6 2 -48z m-2246 -5 c10 -31 8 -44 -13
-95 -21 -53 -87 -259 -113 -355 -9 -33 -10 -30 -18 43 -4 43 -5 92 -1 110 10
54 120 347 127 339 4 -4 12 -23 18 -42z m932 27 c19 -8 43 -22 54 -31 18 -15
17 -15 -24 -1 -24 8 -88 18 -142 22 -87 5 -97 8 -81 20 22 18 143 11 193 -10z
m1271 1 c-7 -7 -12 -29 -12 -50 0 -21 -5 -38 -11 -38 -8 0 -9 11 -5 31 3 17 6
40 6 50 0 11 7 19 17 19 13 0 14 -3 5 -12z m-116 -14 c-3 -9 -9 -41 -13 -72
l-8 -57 -6 65 c-6 72 -5 80 18 80 10 0 13 -6 9 -16z m56 -31 c-8 -77 -21 -86
-22 -15 0 46 4 62 14 62 10 0 12 -11 8 -47z m842 22 c9 -36 2 -44 -70 -76 -78
-36 -120 -36 -224 -3 -93 29 -79 33 -172 -54 -44 -42 -68 -48 -68 -16 0 13
107 121 151 152 15 10 30 8 93 -13 99 -33 148 -32 217 4 69 36 66 36 73 6z
m166 -29 c0 -32 -32 -77 -43 -59 -7 12 25 103 34 97 5 -3 9 -20 9 -38z m534
12 c-3 -13 -28 -54 -54 -93 -26 -38 -75 -114 -110 -167 -59 -90 -90 -124 -90
-96 0 6 30 63 66 127 91 159 213 307 188 229z m660 -51 c0 -23 -7 -82 -17
-132 -26 -139 -45 -323 -53 -518 -6 -156 -9 -178 -23 -175 -14 3 -16 27 -15
208 0 143 6 231 17 290 9 47 25 148 37 225 12 77 23 146 26 154 9 27 28 -8 28
-52z m-3452 28 c37 -7 79 -21 95 -29 34 -18 30 -20 -17 -5 -50 15 -174 12
-285 -7 -53 -9 -99 -13 -102 -10 -10 10 87 48 141 56 77 11 95 11 168 -5z
m-1270 -62 c186 -197 181 -191 188 -237 l7 -45 -65 57 c-36 31 -96 91 -133
132 -60 65 -69 80 -69 113 0 20 4 37 9 37 5 0 33 -26 63 -57z m3412 11 c8 -31
-6 -43 -95 -85 -99 -47 -132 -46 -274 4 -52 19 -73 22 -80 14 -15 -18 -122
-107 -129 -107 -18 0 19 45 87 104 l78 67 71 -22 c92 -28 181 -23 255 14 28
15 54 31 58 37 9 15 22 4 29 -26z m-2134 -3 c-8 -5 -85 -23 -170 -40 -85 -18
-172 -39 -192 -46 -35 -12 -38 -12 -38 5 0 14 10 21 38 25 20 4 57 11 82 16
51 12 257 47 280 48 13 0 13 -1 0 -8z m-851 -76 c13 -36 21 -68 19 -71 -3 -2
-17 14 -32 36 -14 22 -31 40 -36 40 -5 0 -7 7 -5 15 3 8 7 22 10 30 9 29 21
14 44 -50z m1102 13 c55 -26 139 -100 120 -106 -6 -2 -30 10 -54 27 -105 72
-236 88 -387 48 -133 -36 -177 -67 -216 -157 -19 -43 -34 -52 -34 -21 0 24 43
89 82 123 18 15 29 30 26 33 -9 10 -90 -34 -125 -67 -30 -29 -53 -31 -53 -4 0
16 131 86 160 86 11 0 69 13 128 29 141 39 146 40 228 37 50 -2 86 -10 125
-28z m1995 5 c-10 -10 -19 5 -10 18 6 11 8 11 12 0 2 -7 1 -15 -2 -18z m1252
-15 c20 -79 22 -98 13 -98 -21 0 -41 46 -41 92 0 59 14 62 28 6z m-3938 -9 c0
-12 -7 -19 -20 -19 -11 0 -20 2 -20 4 0 2 -3 11 -6 19 -3 10 1 17 13 19 25 6
33 0 33 -23z m2616 -38 c-9 -9 -49 -34 -90 -55 -107 -55 -182 -60 -289 -17
-43 17 -83 31 -89 31 -6 0 -25 -10 -42 -23 -104 -77 -112 -65 -22 28 64 66 64
66 93 52 48 -25 139 -47 192 -47 40 0 68 9 143 48 l93 47 13 -24 c10 -20 10
-27 -2 -40z m-3357 -115 c87 -85 121 -133 121 -171 0 -16 -71 41 -232 187 -76
67 -78 71 -78 115 l0 46 48 -44 c26 -23 89 -84 141 -133z m368 1 c12 -29 19
-54 17 -56 -6 -6 -49 45 -70 82 -9 17 -26 30 -44 33 -16 4 -27 11 -25 18 2 6
6 24 10 39 l6 29 42 -47 c23 -26 52 -70 64 -98z m310 111 c-3 -7 -5 -2 -5 12
0 14 2 19 5 13 2 -7 2 -19 0 -25z m653 22 c0 -5 -8 -10 -18 -10 -10 0 -54 -21
-97 -47 -92 -55 -159 -131 -177 -199 -14 -50 -28 -58 -28 -15 0 67 58 158 135
211 73 50 185 87 185 60z m80 -30 c0 -5 -6 -10 -12 -10 -25 0 -134 -58 -177
-94 -63 -53 -113 -121 -120 -162 -8 -44 -25 -49 -29 -7 -7 69 88 195 184 242
67 34 154 51 154 31z m-666 -42 c3 -18 7 -57 9 -85 4 -50 3 -53 -19 -53 -21 0
-24 5 -24 35 0 27 4 35 18 35 15 1 15 2 1 13 -17 13 -32 70 -22 81 16 15 33 3
37 -26z m303 -9 c-46 -40 -87 -102 -87 -134 0 -8 -4 -15 -10 -15 -17 0 -11 48
10 91 13 24 39 51 67 70 67 41 76 36 20 -12z m2359 10 c19 -37 26 -31 -105
-97 -93 -46 -96 -47 -185 -46 -78 1 -102 6 -165 33 -57 24 -77 28 -88 20 -7
-7 -16 -10 -19 -7 -2 3 11 19 31 37 36 31 36 31 73 15 74 -33 140 -43 204 -33
58 9 139 45 203 88 17 12 31 21 32 21 1 0 10 -14 19 -31z m-1947 -10 c-87 -23
-228 -125 -285 -205 -39 -55 -60 -69 -49 -33 33 107 129 197 257 244 49 18 68
20 83 12 19 -10 19 -11 -6 -18z m3247 -45 c3 -12 4 -31 2 -43 -3 -18 -8 -15
-40 25 -21 26 -38 58 -38 71 l0 24 35 -28 c20 -15 38 -38 41 -49z m-4827 -22
c36 -32 96 -81 133 -110 81 -64 128 -116 128 -142 0 -11 -3 -20 -6 -20 -11 0
-243 170 -297 217 -31 27 -37 39 -37 73 0 22 3 40 7 40 3 0 36 -26 72 -58z
m379 42 c6 -11 3 -28 -10 -52 -10 -20 -18 -43 -18 -52 0 -27 -53 -220 -59
-215 -16 9 -9 79 20 195 17 69 33 128 36 133 7 12 21 8 31 -9z m1358 -16 c16
-12 64 -55 108 -95 43 -40 125 -105 182 -145 57 -40 103 -77 103 -83 -1 -5
-34 -40 -74 -78 l-72 -67 -39 14 c-54 19 -349 164 -468 231 -55 30 -102 53
-104 50 -7 -6 -9 -5 78 -60 70 -45 439 -235 457 -235 4 0 19 -9 33 -20 24 -18
24 -20 8 -36 -16 -16 -19 -16 -35 -2 -17 15 -143 92 -192 118 -40 21 -14 -6
65 -67 102 -78 104 -79 104 -87 0 -13 -145 92 -185 134 -34 36 -125 107 -125
98 0 -2 31 -37 70 -78 38 -41 67 -76 65 -79 -3 -2 -43 32 -90 75 -193 177
-302 249 -140 92 60 -59 107 -110 103 -113 -7 -7 -224 191 -232 212 -7 18 -26
16 -26 -3 0 -9 28 -43 63 -76 71 -69 60 -74 -19 -8 -78 67 -83 79 -46 132 99
143 324 241 408 176z m-1280 -57 c45 -42 85 -113 72 -127 -3 -2 -35 23 -71 57
-53 48 -67 67 -67 90 0 16 3 29 8 29 4 0 30 -22 58 -49z m3114 29 c15 -28 9
-34 -68 -79 -136 -79 -232 -88 -355 -33 -70 32 -95 54 -29 26 95 -40 251 -12
369 66 32 21 61 39 65 39 4 1 12 -8 18 -19z m-972 -15 c34 -8 97 -28 140 -45
70 -27 120 -54 312 -164 129 -75 239 -103 333 -86 29 6 117 41 197 80 172 83
234 100 356 100 174 0 316 -73 414 -211 57 -82 81 -142 116 -284 38 -159 42
-150 -73 -165 -54 -6 -123 -16 -153 -20 -30 -5 -118 -16 -195 -25 l-140 -16
-20 28 c-11 15 -49 58 -85 94 -93 93 -147 114 -300 113 -139 0 -189 -17 -296
-97 l-71 -54 -44 30 c-24 17 -81 56 -126 89 -102 73 -181 110 -312 148 -64 18
-148 53 -225 93 -268 141 -486 277 -486 302 0 22 150 77 273 101 89 17 295 11
385 -11z m2188 -20 c29 -29 44 -53 44 -70 0 -33 -10 -27 -60 37 -36 45 -50 78
-34 78 3 0 26 -20 50 -45z m-4731 -131 c45 -32 109 -77 142 -99 43 -28 66 -51
76 -75 8 -19 13 -37 12 -39 -5 -5 -55 26 -221 136 -146 97 -157 109 -146 166
4 17 6 17 30 -6 15 -13 63 -51 107 -83z m3555 97 c0 -24 -137 -92 -210 -105
-32 -6 -31 -4 12 13 26 11 75 38 110 60 64 40 88 48 88 32z m-3166 -50 c84
-67 95 -81 111 -139 l13 -51 -104 91 c-57 50 -104 93 -104 97 0 14 13 51 17
51 3 0 33 -22 67 -49z m436 8 c0 -24 -4 -29 -25 -29 -22 0 -25 4 -25 34 0 30
2 33 25 28 20 -3 25 -10 25 -33z m3950 -81 c0 -10 -3 -18 -8 -18 -17 0 -92 91
-92 112 0 19 6 16 50 -27 28 -27 50 -57 50 -67z m-3879 36 c8 -5 10 -3 4 7 -6
11 -5 11 5 2 10 -9 10 -17 -1 -42 -20 -44 -36 -38 -42 16 -6 53 2 78 14 46 4
-12 13 -24 20 -29z m-80 -4 c13 -8 19 -21 19 -45 0 -30 -3 -35 -24 -35 -21 0
-24 6 -28 41 -5 52 -1 57 33 39z m2344 -10 c13 -5 14 -9 5 -9 -8 0 -24 4 -35
9 -13 5 -14 9 -5 9 8 0 24 -4 35 -9z m-2761 -73 c101 -81 123 -107 132 -156
l7 -34 -39 39 c-37 36 -186 154 -195 154 -3 0 -5 -17 -5 -37 0 -21 -7 -58 -15
-83 l-14 -45 -3 62 c-3 59 21 173 36 173 4 0 47 -33 96 -73z m-241 -127 c68
-38 82 -51 93 -82 7 -21 11 -38 9 -38 -2 0 -27 16 -56 35 -30 19 -57 35 -61
35 -6 0 -57 28 -199 112 -66 39 -79 55 -79 106 0 21 10 16 107 -50 58 -40 142
-93 186 -118z m3085 183 c-10 -2 -28 -2 -40 0 -13 2 -5 4 17 4 22 1 32 -1 23
-4z m1501 -60 c39 -34 44 -44 49 -91 6 -65 -4 -67 -66 -7 -25 25 -50 45 -54
45 -4 0 -8 25 -8 55 0 64 4 64 79 -2z m-3902 -57 c1 -40 -1 -43 -20 -38 -28 7
-37 20 -37 55 0 23 4 27 28 27 27 0 29 -2 29 -44z m4042 -61 c11 -35 27 -121
36 -192 9 -70 17 -135 18 -143 1 -9 -11 -16 -38 -21 -22 -4 -43 -5 -46 -3 -4
2 -10 77 -13 166 -4 90 -9 195 -12 233 l-5 70 20 -23 c12 -13 30 -52 40 -87z
m-4452 -7 c89 -77 123 -121 123 -163 0 -12 -9 -8 -32 15 -25 26 -106 92 -185
153 -9 7 -12 -2 -12 -35 1 -23 -5 -56 -12 -73 l-13 -30 -4 35 c-5 46 20 180
34 180 3 0 49 -37 101 -82z m-476 24 c35 -21 89 -51 119 -67 125 -65 190 -110
205 -141 21 -44 19 -48 -12 -26 -16 11 -102 58 -193 106 -91 48 -170 93 -176
99 -15 16 -27 67 -15 67 5 0 38 -17 72 -38z m2173 30 c3 -5 -11 -26 -30 -48
-20 -21 -70 -82 -112 -134 -54 -66 -78 -90 -80 -77 -6 28 66 134 137 203 66
65 76 71 85 56z m66 -28 c0 -3 -26 -36 -58 -72 -72 -82 -102 -134 -102 -173 0
-32 -16 -35 -34 -7 -7 11 -4 29 8 62 27 70 186 233 186 190z m2537 -58 c43
-39 73 -90 73 -123 -1 -28 -149 136 -150 166 0 27 3 25 77 -43z m-3402 18 c36
-20 65 -38 65 -40 0 -3 -12 -28 -26 -56 -39 -77 -83 -265 -95 -407 -19 -220
27 -593 96 -775 l24 -64 -45 -79 c-89 -156 -150 -363 -182 -615 -10 -80 -22
-150 -26 -156 -9 -16 -63 -15 -72 0 -22 36 23 982 72 1503 35 380 88 725 110
725 7 0 43 -16 79 -36z m-482 -6 c6 -40 6 -39 -20 -32 -12 3 -26 19 -32 35 -9
28 -9 29 18 29 25 0 29 -5 34 -32z m1407 14 c0 -5 -9 -42 -19 -83 -11 -41 -23
-118 -27 -171 -8 -115 -24 -121 -24 -10 0 68 15 146 44 227 6 15 1 12 -17 -8
-31 -36 -57 -130 -57 -203 0 -40 -3 -55 -12 -52 -26 9 -16 114 18 202 5 14 4
17 -4 12 -22 -13 -53 -86 -59 -137 -6 -51 -17 -63 -26 -30 -8 32 9 100 34 135
28 38 125 126 139 126 6 0 10 -4 10 -8z m61 -162 c-2 -163 -11 -275 -22 -258
-17 26 -4 391 14 385 5 -1 9 -55 8 -127z m-2349 89 c35 -17 79 -39 98 -50 19
-11 78 -41 131 -67 86 -42 99 -52 118 -89 24 -49 21 -52 -21 -21 -17 12 -106
58 -197 103 -91 45 -171 88 -177 96 -11 14 -25 59 -18 59 2 0 32 -14 66 -31z
m471 -26 c40 -31 84 -69 99 -85 25 -26 53 -96 43 -106 -3 -3 -28 18 -57 46
-56 54 -152 132 -162 132 -3 0 -6 -19 -6 -42 0 -51 -15 -83 -26 -55 -11 31 11
167 28 167 5 0 41 -25 81 -57z m6895 25 c4 -33 -30 -57 -54 -37 -30 24 -8 72
31 67 13 -2 21 -12 23 -30z m-6488 0 c0 -7 3 -23 6 -35 5 -20 2 -23 -20 -23
-19 0 -26 5 -26 19 0 11 -3 26 -6 35 -5 12 0 16 20 16 14 0 26 -6 26 -12z
m1519 -225 c1 -161 -3 -198 -20 -187 -11 6 -12 273 -2 365 7 64 7 64 14 24 5
-22 8 -113 8 -202z m2369 165 c52 -53 73 -82 78 -108 6 -34 5 -34 -80 50 -58
57 -86 92 -86 107 0 13 3 23 8 23 4 0 40 -33 80 -72z m-2464 -70 c-6 -156 -11
-189 -25 -167 -22 36 0 299 26 299 3 0 2 -60 -1 -132z m149 72 c5 -30 7 -126
5 -213 -3 -144 -2 -155 11 -125 10 24 15 79 15 196 0 140 3 162 16 160 11 -2
18 -25 25 -79 l10 -76 95 -104 c204 -223 219 -234 353 -279 67 -23 76 -34 44
-54 -22 -14 -138 24 -202 66 -67 44 -286 297 -298 343 -2 11 -5 -1 -6 -27 0
-27 3 -48 8 -48 5 0 62 -60 126 -132 125 -143 156 -166 253 -199 117 -39 50
-58 -77 -22 -38 11 -69 29 -104 62 -67 62 -176 197 -197 244 -13 29 -19 34
-24 22 -3 -9 -6 -26 -6 -37 0 -22 -51 -118 -62 -118 -13 0 -18 64 -21 273 -2
179 0 207 13 205 10 -2 18 -22 23 -58z m3893 26 c3 -13 4 -37 2 -52 -3 -26 -8
-29 -40 -32 -43 -4 -46 4 -27 71 8 30 15 37 34 37 18 0 26 -7 31 -24z m748 18
c26 -10 20 -53 -9 -66 -21 -9 -29 -9 -42 5 -14 13 -14 21 -5 42 12 25 27 30
56 19z m-4501 -60 c18 -10 68 -48 112 -85 44 -38 85 -69 90 -69 6 1 -24 32
-65 70 -88 82 -77 89 43 29 109 -55 117 -63 117 -117 0 -91 62 -161 202 -228
43 -20 50 -32 39 -70 -12 -48 -31 -51 -123 -20 -156 52 -178 70 -351 274 -94
111 -123 157 -106 168 8 4 52 -34 120 -105 60 -62 109 -109 109 -105 0 14 -83
107 -157 178 -40 38 -73 75 -73 82 0 18 4 18 43 -2z m-2515 -54 c62 -33 115
-60 118 -60 15 0 151 -74 172 -93 19 -17 30 -47 18 -47 -2 0 -50 22 -107 48
-57 27 -120 55 -139 62 -74 29 -180 113 -180 142 0 12 -2 13 118 -52z m799 52
c6 -4 13 -21 15 -37 2 -24 -1 -30 -17 -30 -16 0 -21 8 -23 38 -3 37 2 43 25
29z m3901 -95 c68 -71 88 -107 59 -107 -21 0 -155 143 -163 174 -6 25 -5 27
12 18 11 -6 52 -44 92 -85z m-4285 24 c40 -32 86 -74 103 -92 31 -35 61 -95
51 -105 -3 -3 -54 40 -113 95 -59 55 -111 98 -116 95 -18 -11 -5 -33 45 -73
87 -71 197 -181 197 -198 0 -13 -114 79 -149 121 -7 8 -35 29 -62 46 -47 31
-49 34 -49 79 0 46 8 91 17 91 2 0 37 -27 76 -59z m6267 32 c-1 -22 -21 -31
-82 -35 -61 -5 -68 -4 -68 13 0 18 7 20 123 27 15 1 27 -1 27 -5z m-262 -69
c15 -17 20 -29 13 -33 -7 -5 4 -34 29 -81 37 -71 51 -132 31 -144 -5 -3 -12 9
-15 27 -3 17 -20 61 -36 96 -17 35 -32 73 -34 85 -3 21 -14 29 -96 66 l-45 20
65 -4 c55 -4 68 -9 88 -32z m-6363 -59 c93 -45 233 -105 248 -105 7 0 20 -12
31 -26 l19 -26 -34 7 c-52 11 -133 38 -139 46 -3 3 -41 19 -85 35 -80 27 -136
71 -166 126 l-12 22 34 -23 c19 -12 66 -37 104 -56z m6228 55 c95 -36 112 -69
121 -228 l6 -97 -24 107 c-12 59 -30 118 -40 133 -10 15 -46 38 -86 57 -104
46 -86 69 23 28z m-5461 -22 c-8 -59 -42 -60 -42 -2 0 29 3 34 23 34 21 0 23
-4 19 -32z m5232 24 c14 -23 -22 -33 -185 -52 -96 -11 -190 -22 -209 -25 -19
-3 -98 -12 -175 -20 -77 -8 -214 -24 -305 -35 -91 -11 -237 -29 -325 -40 -88
-11 -232 -28 -320 -40 -191 -24 -215 -25 -215 -6 0 8 4 17 9 20 5 3 125 19
267 36 143 17 311 37 374 45 63 8 180 22 260 30 80 9 253 29 385 45 219 27
373 45 417 49 9 0 19 -3 22 -7z m-2499 -23 c30 -11 76 -37 103 -58 51 -41 107
-114 98 -129 -3 -5 -27 -12 -53 -15 -44 -5 -51 -2 -85 29 -126 114 -285 118
-420 12 -37 -29 -38 -29 -98 -17 -35 7 -60 17 -60 24 0 33 142 135 223 160 69
22 226 19 292 -6z m1080 -27 c33 -36 36 -42 19 -42 -31 0 -53 22 -60 60 -4 19
-5 33 -3 30 2 -3 22 -24 44 -48z m2040 33 c0 -9 -125 -27 -134 -19 -2 2 -1 10
3 19 5 13 18 15 68 13 35 -2 63 -7 63 -13z m-474 -28 c57 -38 88 -99 114 -225
l7 -33 -88 3 -87 3 -13 38 c-7 20 -14 58 -16 84 -2 39 0 48 15 51 27 6 55 -25
93 -100 19 -38 41 -68 49 -68 8 0 15 4 15 10 0 28 -78 168 -116 207 -24 25
-44 47 -44 49 0 12 41 1 71 -19z m-3318 -16 c23 -15 61 -38 85 -50 71 -36 43
-61 -42 -37 -64 19 -96 47 -96 86 0 17 3 30 6 30 3 0 24 -13 47 -29z m3621
-42 c38 -89 30 -106 -10 -20 -38 82 -38 81 -25 81 4 0 20 -27 35 -61z m-6016
-114 c72 -57 112 -99 112 -117 0 -5 -24 11 -52 36 -29 25 -78 64 -108 88 -52
42 -109 111 -109 133 0 6 19 -11 42 -36 23 -25 75 -72 115 -104z m5851 51 c30
-94 34 -119 19 -114 -7 3 -22 38 -34 79 -11 41 -26 84 -32 96 -17 32 -15 39 8
18 10 -9 28 -45 39 -79z m348 78 c2 -7 -15 -14 -44 -19 -26 -3 -58 -9 -70 -12
-20 -4 -23 -1 -23 21 0 27 0 27 67 24 38 -2 68 -8 70 -14z m-637 -4 c0 -14
-14 -16 -305 -50 -309 -37 -1195 -145 -1313 -161 -88 -12 -115 -8 -106 14 3 9
27 16 62 20 55 5 338 39 1137 137 395 48 525 58 525 40z m1264 -3 c21 -16 18
-45 -6 -61 -38 -23 -78 35 -42 61 10 7 21 13 24 13 3 0 14 -6 24 -13z m-266
-29 c2 -19 -3 -30 -18 -38 -27 -14 -50 2 -50 35 0 29 9 37 40 33 19 -2 26 -10
28 -30z m-6893 -58 c6 -4 48 -19 95 -34 64 -20 92 -35 112 -58 27 -31 31 -51
6 -30 -7 6 -75 33 -152 61 -148 54 -179 70 -196 101 -10 18 -6 18 57 -6 38
-14 73 -29 78 -34z m1392 20 c66 -16 167 -39 224 -50 57 -12 120 -30 139 -41
20 -12 70 -61 111 -111 110 -134 186 -200 294 -253 l92 -45 18 -132 c9 -73 22
-138 27 -145 9 -11 29 -11 96 3 17 3 21 10 18 27 -3 12 -7 47 -10 78 l-6 57
82 25 c46 15 86 23 89 19 3 -4 11 -38 18 -76 20 -114 56 -167 141 -205 37 -17
66 -21 169 -21 111 0 122 -2 110 -16 -7 -8 -29 -24 -48 -34 -20 -10 -117 -80
-216 -154 -99 -75 -209 -151 -245 -170 -251 -130 -532 -126 -764 10 -150 88
-305 270 -376 441 -74 176 -120 429 -120 651 0 135 5 172 24 172 6 0 66 -13
133 -30z m4503 1 c0 -5 -8 -12 -17 -15 -20 -6 -410 -58 -563 -75 -52 -6 -147
-18 -210 -26 -91 -13 -615 -79 -884 -112 -43 -5 -48 -4 -44 13 4 22 16 25 253
54 94 12 296 37 450 56 154 19 377 45 495 59 118 14 258 32 310 39 115 16 210
19 210 7z m395 -88 l4 -68 -13 50 c-8 28 -14 66 -15 85 -1 64 19 7 24 -67z
m-2145 38 c0 -23 -16 -36 -25 -21 -9 14 1 40 15 40 5 0 10 -9 10 -19z m-3832
-65 c94 -70 148 -123 138 -134 -3 -2 -25 14 -48 36 -24 22 -78 68 -120 101
-71 56 -87 71 -73 71 2 0 49 -33 103 -74z m2053 -23 c119 -139 142 -159 199
-178 27 -9 50 -21 50 -26 0 -14 -76 -11 -113 5 -36 15 -156 137 -205 209 -31
44 -42 87 -23 87 5 0 46 -44 92 -97z m1723 80 c8 -20 -10 -33 -46 -33 -15 0
-74 -7 -130 -15 -280 -39 -380 -48 -389 -34 -4 8 -4 18 1 23 8 8 122 23 425
56 55 7 102 13 104 16 10 10 29 3 35 -13z m1818 -32 c-6 -40 -29 -66 -85 -95
-28 -16 -71 -49 -94 -74 l-42 -47 -139 1 c-199 3 -429 36 -627 92 l-60 16 40
8 c22 4 218 30 435 58 217 29 418 55 445 60 28 4 68 7 90 6 36 -1 40 -3 37
-25z m-5867 -11 c103 -36 204 -83 209 -96 7 -18 10 -19 -83 15 -94 35 -197 86
-207 102 -5 9 -2 10 12 5 10 -5 42 -16 69 -26z m2274 -92 c29 -37 80 -93 114
-123 60 -53 64 -70 9 -41 -24 13 -74 62 -171 167 -25 28 -31 42 -26 59 4 12
10 18 14 14 4 -5 31 -39 60 -76z m1841 67 c0 -8 -7 -15 -15 -15 -16 0 -20 12
-8 23 11 12 23 8 23 -8z m-62 -30 c-4 -4 -258 -40 -388 -55 -52 -6 -110 -13
-127 -16 -28 -5 -33 -3 -33 14 0 25 15 29 160 43 63 7 176 19 250 28 113 14
136 14 138 3 2 -7 2 -15 0 -17z m2020 -12 c53 -3 72 -8 72 -19 0 -11 -20 -14
-95 -15 -52 -1 -101 -2 -107 -3 -7 -1 -14 6 -16 16 -5 25 27 30 146 21z m-190
-105 l-3 -103 65 -5 c63 -5 64 -6 27 -14 -40 -9 -104 -3 -119 12 -8 8 7 186
18 203 13 22 16 2 12 -93z m-1768 56 c0 -13 -4 -24 -10 -24 -5 0 -10 14 -10
31 0 17 4 28 10 24 6 -3 10 -17 10 -31z m-3892 -40 c29 -19 28 -26 -1 -15 -51
20 -157 70 -157 75 0 7 130 -42 158 -60z m3840 39 c-4 -20 -24 -24 -248 -53
-85 -10 -186 -24 -225 -29 -94 -14 -95 -14 -95 9 0 23 1 24 185 45 77 10 181
23 230 30 134 19 157 18 153 -2z m1760 -94 c-9 -108 -12 -119 -28 -103 -6 6
-6 41 1 99 11 102 15 118 27 111 4 -2 4 -51 0 -107z m321 66 c1 -2 0 -8 -4
-14 -4 -7 -47 -11 -111 -11 -100 0 -104 1 -104 21 0 21 2 22 108 15 59 -4 109
-9 111 -11z m-373 -87 c-6 -89 -10 -107 -22 -96 -10 10 8 188 19 188 6 0 8
-32 3 -92z m-980 71 c47 -12 53 -19 29 -39 -21 -17 -95 -6 -159 24 l-51 24 68
1 c38 1 88 -4 113 -10z m935 -40 c-6 -24 -11 -65 -11 -91 0 -27 -4 -48 -10
-48 -16 0 -12 116 5 157 20 47 28 37 16 -18z m-1495 -5 c16 -112 -18 -323 -70
-429 -44 -88 -106 -152 -212 -217 l-83 -50 82 -66 c157 -125 383 -283 547
-382 309 -188 417 -251 456 -266 52 -20 64 -47 64 -144 0 -94 -46 -219 -87
-234 -17 -7 -18 -11 21 99 28 78 35 190 14 216 -7 9 -76 51 -153 94 -372 210
-733 455 -980 666 -171 146 -282 208 -400 224 -73 9 -95 14 -95 23 0 4 24 22
53 39 88 53 190 137 229 188 22 29 48 83 64 132 25 77 29 83 58 88 17 2 130
18 251 34 121 16 223 29 227 30 4 1 10 -20 14 -45z m822 26 c78 -17 79 -20 42
-86 -30 -54 -32 -63 -28 -128 3 -46 13 -86 27 -115 13 -24 19 -47 14 -51 -9
-9 -167 -40 -205 -40 -55 0 -102 86 -102 190 -1 62 4 85 27 132 16 32 45 71
65 88 40 33 47 34 160 10z m-4694 -27 c8 -19 2 -16 -25 13 -23 25 -23 26 -2
13 13 -7 25 -19 27 -26z m5656 -2 c99 -7 86 -17 -34 -27 l-86 -7 0 28 c0 22 3
26 18 19 9 -4 55 -10 102 -13z m-857 -30 c-9 -33 18 -163 48 -233 15 -38 24
-68 19 -68 -16 0 -60 74 -76 126 -21 70 -17 213 6 199 5 -3 6 -14 3 -24z m67
-28 c0 -60 26 -158 56 -212 28 -51 24 -64 -10 -32 -41 39 -68 117 -74 214 -4
78 -3 87 12 81 11 -4 16 -19 16 -51z m63 2 c4 -22 23 -87 42 -144 19 -58 32
-107 29 -110 -11 -11 -51 51 -72 112 -12 34 -26 90 -30 125 -8 55 -7 62 7 60
10 -2 19 -19 24 -43z m71 -47 c15 -51 39 -113 52 -137 31 -56 30 -71 -2 -40
-44 41 -74 117 -89 222 -10 77 10 54 39 -45z m57 17 c10 -33 34 -86 54 -119
40 -67 40 -66 21 -66 -34 0 -99 119 -112 205 -10 69 14 55 37 -20z m-1741 47
c0 -25 -35 -121 -57 -156 -42 -68 -83 -105 -203 -184 -108 -71 -166 -101 -199
-102 -27 0 42 59 154 134 127 84 215 173 241 243 9 26 22 54 27 61 11 13 37
17 37 4z m1804 -47 c9 -30 33 -75 52 -101 43 -56 36 -70 -12 -23 -53 52 -105
179 -72 179 9 0 21 -22 32 -55z m67 -15 c22 -77 22 -83 8 -74 -13 8 -43 75
-53 117 -6 23 -4 28 10 25 11 -2 23 -25 35 -68z m-1981 34 c-29 -74 -97 -146
-184 -192 -46 -25 -61 -27 -161 -27 -98 0 -116 3 -165 26 -55 26 -150 102
-150 120 0 6 16 17 36 25 35 14 37 14 82 -15 89 -57 140 -74 204 -68 77 7 140
39 204 104 49 48 57 53 98 53 45 0 45 0 36 -26z m1540 -54 c0 -41 42 -176 60
-194 15 -15 12 -36 -3 -30 -37 14 -92 172 -81 231 9 46 24 41 24 -7z m783 -17
c-13 -2 -33 -2 -45 0 -13 2 -3 4 22 4 25 0 35 -2 23 -4z m-3163 -110 c-36 -32
-82 -74 -104 -95 -44 -44 -46 -44 -46 -19 0 30 164 171 199 171 9 0 -12 -25
-49 -57z m83 -11 c-34 -31 -92 -87 -128 -124 -61 -61 -67 -65 -74 -45 -10 26
6 43 133 151 51 44 98 76 110 76 17 -1 9 -12 -41 -58z m57 -17 c-24 -25 -40
-45 -35 -45 6 0 -6 -14 -25 -31 -19 -17 -61 -56 -94 -86 -41 -39 -61 -52 -69
-44 -6 6 -9 12 -6 13 2 2 62 59 132 127 70 68 131 121 134 117 4 -4 -13 -27
-37 -51z m-259 7 c-36 -38 -51 -43 -51 -17 0 12 61 53 81 55 4 0 -9 -17 -30
-38z m327 7 c-2 -5 -19 -20 -38 -31 l-35 -22 29 32 c29 32 51 42 44 21z m7
-64 c-33 -30 -78 -67 -100 -82 -22 -15 -62 -47 -89 -71 -27 -23 -54 -41 -59
-39 -21 7 -16 22 14 44 17 11 54 42 83 67 54 49 183 136 201 136 5 0 -17 -25
-50 -55z m105 14 c0 -4 -24 -25 -52 -46 -29 -21 -68 -51 -86 -68 -19 -16 -55
-49 -80 -72 -45 -41 -72 -54 -72 -34 0 9 108 108 200 184 49 40 90 56 90 36z
m274 -41 c-7 -17 -133 -106 -206 -147 -54 -30 -98 -40 -98 -23 0 10 147 118
210 155 47 28 104 37 94 15z m-204 -2 c0 -2 -28 -22 -62 -45 -35 -23 -81 -57
-102 -77 -45 -40 -92 -67 -108 -62 -12 4 104 110 172 156 37 26 100 43 100 28z
m30 -30 c0 -2 -30 -24 -67 -49 -38 -24 -77 -54 -87 -66 -11 -11 -26 -21 -34
-21 -24 0 22 45 98 96 57 39 90 53 90 40z m-3324 -47 c19 -11 34 -26 34 -31 0
-6 3 -8 7 -5 9 9 43 -22 43 -40 0 -7 -2 -13 -5 -13 -10 0 -100 73 -113 91 -17
25 -7 24 34 -2z m134 -98 c0 -8 15 -28 33 -43 l32 -29 -30 6 c-16 4 -52 10
-80 15 -36 6 -55 15 -72 36 -23 30 -23 45 0 25 8 -6 35 -14 61 -17 l48 -7 -21
44 -22 44 26 -30 c13 -16 25 -36 25 -44z m56 4 c25 -33 28 -55 6 -41 -16 9
-52 76 -42 76 5 0 21 -16 36 -35z m72 -47 c15 -15 16 -41 0 -36 -6 2 -18 14
-26 26 -12 19 -12 22 0 22 8 0 19 -5 26 -12z m3479 -33 c69 -31 140 -78 301
-200 287 -216 322 -242 398 -295 138 -95 466 -306 593 -380 88 -51 95 -77 9
-34 -51 26 -353 207 -407 243 -14 10 -102 69 -196 131 -93 63 -251 175 -350
250 -286 217 -367 267 -458 284 -37 7 -48 20 -24 30 20 9 79 -4 134 -29z
m-3490 -27 c24 -19 2 -28 -65 -28 -65 0 -112 14 -119 36 -4 13 167 6 184 -8z
m108 -40 c54 -59 118 -149 131 -183 11 -28 -11 -15 -30 17 -11 17 -54 71 -98
120 -43 49 -78 94 -78 99 0 21 21 6 75 -53z m5800 33 c39 -18 98 -71 79 -71
-6 0 -30 10 -55 22 -74 38 -203 37 -365 -1 -141 -33 -174 -37 -174 -21 0 14
69 43 150 63 97 25 97 25 215 26 87 0 118 -3 150 -18z m-4774 -100 c10 -35 9
-40 -42 -116 -63 -96 -118 -212 -170 -360 -44 -127 -47 -122 -18 35 29 158 81
324 135 433 l46 91 19 -23 c10 -13 24 -40 30 -60z m-1072 34 c29 -28 2 -38
-87 -31 -92 8 -122 18 -122 42 0 13 14 14 98 8 56 -3 103 -12 111 -19z m5564
-46 c20 -5 37 -14 37 -18 0 -4 -55 -11 -122 -14 -201 -11 -314 -42 -800 -217
-136 -50 -258 -90 -272 -90 -29 0 -41 14 -23 27 25 20 563 218 698 257 207 60
389 81 482 55z m-5496 -26 c10 -25 -16 -38 -80 -38 -85 0 -135 12 -147 35 -10
19 -7 20 105 19 92 -1 118 -4 122 -16z m1047 -49 c11 -29 6 -44 -13 -44 -26 0
-34 15 -21 40 13 24 26 26 34 4z m-1007 -2 c37 -24 77 -188 71 -295 l-3 -56
-97 90 c-92 85 -198 217 -198 246 0 11 14 12 63 8 34 -4 80 -2 102 3 22 6 42
10 45 11 3 0 10 -3 17 -7z m976 -64 c31 -15 33 -25 13 -72 -7 -18 -21 -66 -30
-107 -9 -41 -32 -135 -51 -209 -19 -74 -37 -147 -40 -161 -6 -31 -27 -39 -102
-39 -49 0 -53 2 -53 23 0 44 59 233 109 351 47 112 108 226 121 226 3 0 18 -6
33 -12z m88 -20 c1 -7 1 -18 0 -24 -1 -7 14 -21 34 -33 19 -11 35 -26 34 -33
0 -12 -148 -142 -155 -136 -5 5 15 98 36 169 14 44 26 69 35 69 8 0 16 -6 16
-12z m-908 -131 c39 -89 147 -405 147 -430 0 -4 -15 -7 -32 -5 -29 3 -36 10
-61 63 -16 33 -46 89 -67 125 -37 63 -38 69 -44 188 -4 67 -9 137 -13 155 -12
60 22 13 70 -96z m1067 -42 c80 -69 222 -141 315 -160 91 -19 252 -19 340 1
39 8 86 18 106 21 l37 5 -2 -43 c0 -24 3 -83 7 -131 l8 -88 -566 0 c-492 0
-566 2 -571 15 -9 22 23 152 52 215 25 54 175 220 199 220 6 0 40 -25 75 -55z
m1731 -160 c12 -17 41 -46 65 -65 35 -28 41 -36 28 -43 -33 -18 -144 100 -144
152 1 25 1 25 15 6 8 -11 24 -34 36 -50z m368 -68 c320 -178 419 -230 679
-357 149 -73 248 -128 243 -133 -5 -5 -47 6 -102 28 -102 40 -510 246 -734
370 -191 106 -319 195 -279 195 4 0 90 -47 193 -103z m2255 -63 c21 -20 206
-330 206 -344 0 -5 -11 -10 -25 -10 -18 0 -29 9 -41 33 -9 17 -45 75 -79 127
-105 161 -120 191 -104 201 19 12 25 11 43 -7z m140 -60 c26 -36 70 -109 98
-161 39 -73 48 -97 38 -106 -9 -9 -18 -5 -39 21 -15 18 -34 45 -42 60 -7 15
-25 45 -40 67 -35 54 -109 176 -109 181 0 2 10 4 23 4 17 0 36 -17 71 -66z
m-199 4 c15 -29 47 -80 70 -113 85 -123 119 -186 104 -196 -23 -14 -38 -10
-52 14 -8 12 -48 76 -89 142 -127 204 -128 205 -83 205 16 0 29 -14 50 -52z
m280 37 c63 -19 78 -42 100 -161 26 -131 16 -149 -28 -58 -16 31 -53 94 -83
139 -30 45 -54 84 -54 88 0 10 5 9 65 -8z m-2512 -19 c61 -56 95 -174 77 -263
-9 -39 -22 -65 -55 -100 -24 -27 -46 -45 -49 -42 -3 3 10 34 29 70 29 53 35
75 35 125 0 68 -18 130 -55 186 -14 21 -25 40 -25 43 0 12 19 4 43 -19z m2189
-102 c115 -187 139 -234 121 -241 -25 -10 -45 9 -93 91 -25 42 -69 111 -97
153 -57 82 -63 99 -35 106 29 6 41 -6 104 -109z m-144 62 c6 -13 37 -60 69
-104 47 -64 100 -149 121 -193 5 -10 -26 -19 -43 -13 -8 4 -31 37 -51 75 -20
38 -42 69 -48 69 -13 1 -116 172 -109 183 10 17 50 6 61 -17z m622 -42 c10
-41 13 -111 5 -103 -2 3 -11 34 -19 70 -7 35 -17 73 -21 84 -7 19 -7 19 9 4
10 -9 22 -34 26 -55z m-2530 -93 c0 -93 -14 -114 -18 -28 -2 23 -9 68 -16 99
-15 65 -10 80 16 48 15 -18 18 -41 18 -119z m1485 114 l60 -11 88 -129 c48
-71 87 -135 87 -142 0 -24 -27 -14 -53 20 -55 71 -84 97 -71 62 11 -28 -24
-16 -47 16 l-22 32 -23 -49 c-13 -27 -23 -54 -24 -60 0 -6 -6 -16 -13 -23 -11
-8 -13 5 -9 73 3 55 1 86 -7 90 -7 5 -11 -7 -11 -39 0 -45 -28 -116 -52 -131
-8 -5 -9 -2 -4 12 27 69 27 147 0 277 -6 27 -4 28 17 21 13 -4 51 -13 84 -19z
m389 -77 c34 -53 65 -97 70 -97 9 1 64 -96 66 -113 0 -5 -13 -8 -28 -8 -26 0
-38 14 -121 146 -89 139 -104 180 -65 172 9 -2 44 -47 78 -100z m-103 15 c23
-32 65 -96 95 -143 43 -69 51 -86 39 -93 -24 -13 -42 4 -108 102 -34 52 -74
112 -89 135 -34 49 -35 56 -3 56 19 0 35 -14 66 -57z m-69 -40 c74 -101 126
-189 116 -199 -18 -17 -69 21 -99 75 -18 31 -49 81 -69 111 -20 30 -42 65 -49
78 -11 20 -9 22 12 22 18 0 39 -20 89 -87z m888 10 c0 -37 -2 -64 -4 -62 -8 9
-13 138 -5 133 5 -3 9 -35 9 -71z m-5604 57 c11 0 14 -21 14 -105 l0 -105 -29
0 -29 0 -7 99 c-7 104 -3 126 22 117 8 -3 21 -6 29 -6z m120 2 c17 -10 27
-105 19 -169 l-7 -55 -36 7 c-20 4 -40 12 -44 18 -10 15 -10 191 -1 200 9 9
55 9 69 -1z m122 0 c9 -6 11 -33 6 -110 l-7 -102 -39 0 -38 0 0 104 c0 101 1
105 23 109 37 7 41 7 55 -1z m166 -2 l29 0 -7 -90 c-4 -50 -9 -97 -12 -105 -5
-11 -23 -15 -77 -15 l-70 0 6 101 c6 113 12 123 67 114 19 -2 48 -5 64 -5z
m1252 -42 c15 -29 42 -77 60 -106 19 -29 34 -58 34 -64 0 -8 -67 -9 -257 -5
-141 4 -434 7 -651 7 l-395 0 7 92 c11 144 -63 128 601 128 l575 0 26 -52z
m1408 18 c13 -71 -13 -171 -47 -180 -30 -8 -35 3 -10 22 17 14 22 32 28 105 7
91 18 111 29 53z m5382 3 c15 -16 28 -41 31 -66 5 -35 1 -45 -25 -74 l-30 -34
-1345 -3 -1346 -2 0 55 c0 36 -7 71 -20 99 -12 23 -21 45 -21 49 0 4 614 6
1365 5 l1365 -3 26 -26z m-8542 -1 c9 -35 7 -188 -2 -188 -5 0 -18 37 -30 83
-12 45 -24 92 -28 105 -6 19 -3 22 24 22 22 0 31 -6 36 -22z m3214 -76 c3 -71
-15 -123 -52 -148 -32 -21 -46 -11 -22 15 27 30 45 90 46 149 0 78 24 64 28
-16z m2563 26 c17 -62 15 -95 -7 -125 -32 -42 -46 -40 -28 3 10 24 14 59 12
101 -4 73 6 82 23 21z m-2504 -86 c-6 -53 -28 -102 -47 -102 -14 0 -12 32 5
73 8 20 15 56 15 79 1 41 1 42 16 23 12 -15 14 -34 11 -73z m63 -14 c0 -33
-23 -92 -40 -103 -17 -11 -25 2 -11 19 7 9 15 42 18 76 5 49 8 58 19 49 8 -6
14 -25 14 -41z m1309 -40 c1 -10 -3 -18 -8 -18 -12 0 -21 38 -14 58 6 13 8 13
14 -4 4 -10 8 -27 8 -36z m-1262 -15 c-6 -35 -22 -62 -31 -52 -8 7 18 89 27
89 5 0 7 -16 4 -37z"/>
<path d="M2730 6336 c0 -2 8 -10 18 -17 15 -13 16 -12 3 4 -13 16 -21 21 -21
13z"/>
<path d="M1145 8268 c-8 -19 48 -345 76 -446 11 -40 31 -97 43 -125 13 -29 41
-104 61 -167 21 -63 47 -134 57 -157 14 -29 18 -52 13 -70 l-7 -28 -15 40 c-9
22 -31 84 -49 138 -19 54 -56 149 -84 210 -58 133 -69 174 -101 375 -13 83
-27 152 -31 152 -14 0 -8 -84 11 -175 11 -50 22 -115 26 -145 9 -66 43 -165
97 -280 50 -106 58 -126 68 -170 8 -35 8 -35 -8 -11 -9 13 -48 82 -86 154 -58
111 -72 145 -91 241 -41 193 -57 261 -68 271 -14 14 -1 -100 17 -153 18 -51
47 -185 41 -191 -7 -7 -63 118 -76 170 -15 56 -29 64 -29 16 0 -32 68 -187 95
-217 8 -9 39 -65 71 -125 31 -61 75 -141 99 -180 23 -38 56 -96 73 -128 l32
-58 -10 -92 c-6 -51 -15 -121 -21 -157 -8 -54 -30 -699 -24 -708 2 -1 65 60
141 136 77 76 169 165 206 198 60 53 94 104 70 104 -5 0 -49 -31 -97 -69 -85
-68 -119 -98 -237 -210 -54 -50 -58 -52 -58 -29 0 31 101 135 283 291 89 77
138 126 145 146 6 17 8 31 5 31 -12 0 -113 -79 -231 -180 -179 -152 -192 -163
-197 -158 -2 2 5 23 16 46 16 32 71 84 223 211 110 92 206 174 212 182 17 21
28 62 15 58 -15 -6 -228 -170 -344 -266 -89 -75 -127 -97 -127 -75 0 16 143
145 308 276 178 143 212 176 212 207 0 15 -14 9 -72 -33 -82 -58 -343 -258
-395 -302 -25 -22 -37 -26 -45 -18 -7 7 -10 13 -7 15 2 2 98 82 213 177 114
96 234 195 267 220 50 39 88 94 75 107 -15 16 -283 -172 -420 -294 -53 -47
-86 -69 -86 -56 0 4 23 23 51 41 28 18 48 36 45 39 -3 3 -14 0 -23 -8 -10 -7
-13 -8 -8 -2 6 6 50 41 99 77 49 36 86 66 83 66 -20 0 -193 -117 -236 -160
-22 -22 -31 -27 -31 -16 0 26 27 47 267 206 235 156 303 211 303 242 0 10 -2
18 -5 18 -14 0 -486 -320 -527 -359 -19 -17 -28 -20 -28 -10 1 34 38 64 347
279 195 136 247 181 251 213 l3 28 -58 -39 c-446 -298 -543 -360 -543 -348 0
17 96 90 324 246 221 151 285 199 310 232 47 65 2 43 -249 -120 -235 -153
-270 -176 -308 -205 -21 -16 -39 -28 -40 -26 -14 23 -65 147 -97 238 -22 63
-47 124 -54 136 -28 43 -58 172 -96 419 -20 122 -25 140 -35 114z m575 -1106
c-19 -15 -75 -62 -125 -105 -49 -43 -112 -94 -140 -113 -27 -19 -60 -41 -72
-50 -13 -9 -23 -12 -23 -7 0 6 19 23 43 39 54 37 131 98 182 145 38 35 155
119 165 118 3 0 -11 -12 -30 -27z"/>
<path d="M8534 7889 c-118 -15 -232 -105 -272 -212 -29 -77 -29 -177 -1 -252
27 -73 104 -156 177 -192 49 -24 69 -28 142 -28 76 0 92 4 152 33 81 39 148
112 180 192 95 241 -114 495 -378 459z"/>
<path d="M5865 6774 c-22 -8 -62 -31 -90 -52 -136 -103 -145 -301 -19 -412 57
-50 97 -63 216 -68 l108 -5 -30 -33 c-44 -51 -62 -91 -67 -153 -7 -74 23 -145
84 -202 86 -79 17 -73 968 -79 l850 -5 42 -25 c166 -100 168 -100 263 -111 52
-6 242 -9 434 -7 l341 3 65 31 c87 41 133 83 167 152 24 49 28 69 28 142 0 76
-3 91 -30 139 -35 62 -119 142 -173 161 -29 11 -167 15 -657 20 l-620 5 31 22
c16 12 43 45 60 75 25 46 29 63 28 128 0 56 -6 85 -21 116 -29 54 -94 118
-151 146 l-47 23 -870 2 c-735 1 -876 -1 -910 -13z m1808 -27 c51 -24 124 -92
147 -137 50 -99 30 -204 -56 -287 l-54 -53 -917 0 -918 0 -51 24 c-87 41 -134
118 -134 222 0 111 97 220 220 245 19 4 415 6 880 6 790 -2 848 -3 883 -20z
m1354 -533 c114 -55 176 -149 176 -266 0 -113 -63 -210 -175 -270 -43 -23 -47
-23 -453 -26 -271 -2 -425 1 -453 8 -24 6 -84 35 -134 65 -50 30 -104 57 -122
60 -17 2 -398 6 -846 8 -917 4 -870 0 -949 80 -40 40 -71 111 -71 163 0 32 26
99 51 134 32 43 67 63 119 70 25 3 666 4 1425 2 l1380 -2 52 -26z"/>
<path d="M1240 5811 c0 -6 4 -13 10 -16 6 -3 7 1 4 9 -7 18 -14 21 -14 7z"/>
<path d="M6270 5688 c-41 -68 -11 -169 64 -213 40 -23 52 -25 180 -25 155 0
185 8 233 63 53 60 56 142 8 187 -30 29 -31 23 -4 -29 35 -68 0 -155 -78 -187
-47 -20 -274 -19 -316 1 -70 33 -103 138 -64 199 20 29 21 36 7 36 -6 0 -19
-15 -30 -32z"/>
<path d="M1546 5305 c-9 -26 -7 -32 5 -12 6 10 9 21 6 23 -2 3 -7 -2 -11 -11z"/>
<path d="M8124 4521 c-43 -11 -98 -46 -128 -82 -37 -44 -48 -97 -40 -193 7
-94 -2 -133 -46 -195 -58 -79 -161 -113 -295 -96 l-57 7 7 53 c3 29 13 77 20
106 8 30 15 79 15 109 -1 188 -201 308 -371 223 -165 -84 -187 -300 -45 -431
76 -70 117 -85 237 -90 l106 -4 5 -102 c4 -85 9 -110 32 -155 38 -75 108 -146
175 -178 82 -39 191 -39 279 1 76 35 119 81 171 183 47 94 81 128 141 142 26
6 187 11 382 11 213 0 339 4 343 10 6 10 -148 14 -535 15 -249 0 -280 -14
-356 -169 -40 -80 -90 -137 -149 -169 -33 -18 -56 -22 -140 -22 -90 0 -104 3
-145 27 -56 33 -112 91 -139 143 -37 73 -55 231 -28 253 6 5 62 12 122 14 98
3 115 6 156 30 25 15 61 44 79 64 54 62 64 96 61 221 -2 123 5 147 56 195 53
51 87 58 269 58 128 0 165 3 162 13 -5 14 -291 21 -344 8z m-668 -89 c107 -55
144 -163 105 -303 -11 -41 -21 -96 -21 -122 0 -42 -3 -47 -26 -53 -41 -11
-185 3 -227 20 -50 22 -124 90 -148 139 -64 124 -3 282 126 332 52 19 139 13
191 -13z"/>
<path d="M1983 2440 c-21 -9 -43 -38 -43 -59 0 -6 9 -20 20 -31 20 -20 33 -20
1333 -20 830 0 1318 4 1327 10 10 6 -275 10 -815 10 -1013 1 -1817 9 -1828 20
-19 18 4 47 41 54 20 3 611 6 1312 7 702 1 1257 5 1235 10 -54 11 -2554 10
-2582 -1z"/>
<path d="M2873 2220 c-18 -4 -43 -14 -55 -23 -26 -17 -64 -77 -49 -77 6 0 15
9 21 19 5 11 27 30 47 43 l38 23 1265 4 c696 3 1225 8 1175 12 -122 9 -2402 9
-2442 -1z"/>
<path d="M2870 2098 c-104 -55 -120 -196 -31 -271 l33 -27 181 2 182 2 -177 5
-177 6 -31 30 c-93 89 -40 234 92 250 29 3 661 5 1403 3 743 -2 1319 0 1280 4
-38 4 -664 10 -1390 14 l-1320 6 -45 -24z"/>
<path d="M5313 1985 c-39 -20 -56 -36 -75 -73 -25 -47 -25 -48 -8 -100 10 -29
27 -63 39 -76 11 -12 21 -26 21 -30 0 -5 -417 -7 -927 -5 -511 2 -955 2 -988
-2 -33 -3 368 -6 891 -7 523 -1 1046 -5 1162 -9 193 -6 212 -8 212 -24 0 -31
-12 -49 -41 -64 -24 -13 -193 -15 -1219 -15 -1085 0 -1193 1 -1216 16 -32 22
-42 12 -15 -15 l21 -21 1193 0 1193 0 44 23 c34 16 48 31 56 57 l12 35 493 5
494 5 -409 8 c-225 4 -513 7 -641 7 -220 0 -233 1 -275 23 -31 15 -51 35 -67
65 -35 69 -30 72 121 73 150 2 129 16 -26 18 -53 0 -100 5 -103 11 -3 5 9 26
27 46 38 41 81 53 190 54 37 0 70 5 73 10 4 6 -28 10 -87 10 -81 0 -101 -4
-145 -25z"/>
<path d="M8208 1993 c29 -2 74 -2 100 0 26 2 2 3 -53 3 -55 0 -76 -1 -47 -3z"/>
<path d="M3583 1953 c181 -2 473 -2 650 0 177 1 30 2 -328 2 -357 0 -502 -1
-322 -2z"/>
<path d="M7710 1870 c-10 -6 86 -9 280 -9 181 1 276 5 245 9 -73 12 -507 12
-525 0z"/>
<path d="M4483 1853 c15 -2 37 -2 50 0 12 2 0 4 -28 4 -27 0 -38 -2 -22 -4z"/>
<path d="M3432 1803 c37 -2 100 -2 140 0 40 1 10 3 -67 3 -77 0 -110 -1 -73
-3z"/>
<path d="M7755 1690 c-38 -4 291 -7 733 -8 533 -1 801 1 797 8 -7 11 -1410 11
-1530 0z"/>
<path d="M3763 1400 c-62 -38 -54 -111 15 -129 26 -7 314 -11 843 -11 783 -1
805 -1 837 -20 18 -11 37 -31 42 -45 9 -23 30 -35 30 -17 0 20 -43 73 -72 89
-31 17 -86 18 -866 21 l-833 2 -11 26 c-11 24 -9 29 20 55 l32 29 588 1 c323
1 772 1 997 0 226 0 489 3 585 8 112 5 -245 8 -1000 9 -1152 2 -1176 2 -1207
-18z"/>
<path d="M6168 1413 c7 -3 16 -2 19 1 4 3 -2 6 -13 5 -11 0 -14 -3 -6 -6z"/>
<path d="M7635 1411 c6 -6 229 -11 595 -13 569 -3 586 -4 624 -24 49 -25 75
-58 82 -105 8 -46 -16 -99 -55 -122 -27 -16 -174 -17 -2235 -17 -1464 0 -2206
-3 -2206 -10 0 -5 10 -10 23 -9 12 0 992 -3 2177 -7 1657 -5 2165 -3 2200 6
80 21 126 83 117 157 -6 54 -27 86 -79 121 l-42 27 -605 3 c-397 2 -602 -1
-596 -7z"/>
<path d="M4875 1210 c-10 -11 -16 -22 -13 -25 3 -3 13 4 23 15 10 11 16 22 13
25 -3 3 -13 -4 -23 -15z"/>
<path d="M4570 840 c-10 -6 375 -10 1095 -10 611 0 1319 0 1575 -1 563 0 512
-1 505 11 -8 14 -3154 14 -3175 0z"/>
<path d="M7925 840 c-4 -6 7 -10 24 -10 17 0 31 5 31 10 0 6 -11 10 -24 10
-14 0 -28 -4 -31 -10z"/>
</g>
</svg>
