<?xml version="1.0" standalone="no"?>
<!DOCTYPE svg PUBLIC "-//W3C//DTD SVG 20010904//EN"
 "http://www.w3.org/TR/2001/REC-SVG-20010904/DTD/svg10.dtd">
<svg version="1.0" xmlns="http://www.w3.org/2000/svg"
 width="1024.000000pt" height="1024.000000pt" viewBox="0 0 1024.000000 1024.000000"
 preserveAspectRatio="xMidYMid meet">

<g transform="translate(0.000000,1024.000000) scale(0.100000,-0.100000)"
fill="#000000" stroke="none">
<path d="M4730 9315 c-82 -23 -149 -59 -204 -110 -41 -38 -59 -48 -117 -60
-173 -36 -314 -160 -383 -336 -40 -103 -49 -171 -49 -359 0 -335 54 -559 164
-684 64 -72 111 -95 271 -130 22 -5 30 -16 48 -73 30 -91 59 -141 113 -190 60
-55 124 -86 254 -124 157 -45 144 -31 141 -162 l-3 -112 -40 -18 c-22 -11 -50
-28 -62 -40 -23 -20 -23 -25 -23 -244 l0 -223 -69 0 c-109 0 -101 -19 -101
227 0 129 -4 222 -10 234 -6 10 -53 39 -105 63 -118 55 -184 115 -227 205 -28
57 -32 80 -37 174 -5 92 -9 111 -25 123 -16 11 -64 14 -227 14 -245 0 -229 4
-559 -145 -113 -51 -277 -124 -365 -163 -88 -38 -272 -119 -410 -180 -235
-104 -639 -281 -980 -430 -199 -86 -275 -133 -360 -217 -127 -127 -185 -256
-192 -425 -12 -269 112 -473 365 -598 39 -20 72 -40 72 -45 0 -5 -16 -55 -35
-111 -52 -151 -68 -277 -62 -471 3 -88 13 -194 22 -235 44 -203 158 -465 281
-646 l67 -99 8 -160 c10 -216 34 -338 105 -537 71 -198 214 -423 335 -529 24
-21 32 -39 40 -89 35 -217 201 -405 475 -537 l79 -38 -475 -3 c-261 -1 -480 0
-487 2 -9 4 -13 111 -15 428 -3 412 -4 424 -25 471 -36 77 -82 134 -142 174
-31 21 -59 43 -63 48 -5 6 -5 100 -1 210 7 246 4 272 -42 291 -19 8 -48 14
-64 14 -28 0 -31 5 -59 78 -17 42 -49 131 -71 196 -23 66 -46 125 -52 132 -30
37 -120 18 -132 -27 -4 -14 15 -84 48 -182 58 -168 64 -197 41 -197 -7 0 -25
-9 -40 -21 l-26 -20 0 -238 0 -238 -54 -36 c-66 -44 -121 -109 -149 -179 -21
-51 -22 -72 -27 -478 l-5 -425 -68 -6 c-50 -4 -74 -11 -89 -26 -27 -28 -27
-88 1 -117 l22 -21 4160 -3 4160 -2 31 30 c25 26 29 36 24 63 -3 18 -17 42
-32 54 -24 22 -34 23 -180 23 -85 0 -154 2 -154 5 0 3 20 31 44 62 62 82 68
109 64 315 l-3 178 -28 27 c-26 27 -32 28 -155 33 l-127 5 -5 201 c-5 220 -7
225 -67 251 -39 16 -240 18 -295 3 -71 -20 -78 -41 -78 -224 0 -88 -3 -178 -6
-198 l-7 -38 -124 0 c-123 0 -125 0 -153 -28 -26 -26 -28 -36 -35 -137 -4 -60
-5 -148 -2 -196 6 -95 21 -134 81 -209 l36 -45 -231 -3 c-127 -1 -332 -1 -457
0 l-227 3 95 49 c184 94 288 189 363 335 37 71 67 175 67 234 0 32 6 41 58 80
32 25 85 74 119 110 155 166 225 336 225 549 0 126 -20 214 -75 323 -124 249
-348 396 -627 412 -192 11 -288 -12 -676 -167 l-228 -90 -60 21 c-101 37 -219
32 -386 -15 -74 -21 -144 -42 -155 -47 -11 -4 -63 -24 -115 -44 -52 -21 -120
-47 -150 -60 -30 -13 -140 -57 -245 -98 -104 -41 -220 -87 -256 -101 -73 -29
-85 -28 -158 18 -21 14 -86 51 -143 82 -56 31 -161 91 -233 134 -71 42 -173
100 -225 130 -192 107 -181 99 -170 119 15 29 66 68 118 92 65 29 151 34 242
14 117 -26 300 -31 401 -10 98 20 223 66 294 109 172 104 323 283 391 463 53
140 67 225 68 408 1 151 3 170 18 173 16 3 17 -39 20 -600 3 -588 4 -604 24
-638 19 -32 24 -35 68 -35 41 0 52 4 69 26 18 25 19 42 18 278 -1 155 2 251 8
251 5 0 34 -35 64 -78 149 -213 315 -332 533 -383 129 -30 304 -24 412 14 154
54 280 150 372 283 90 131 111 196 240 777 l77 349 75 71 c84 82 128 142 168
230 49 110 63 241 39 359 -13 64 -61 163 -97 201 -20 21 -23 30 -14 39 16 16
15 43 -3 79 -15 29 -16 29 -51 14 -20 -8 -46 -15 -58 -15 -21 0 -75 35 -66 43
3 2 34 14 68 27 35 13 66 29 69 36 5 14 -24 111 -36 118 -4 3 -50 -9 -102 -25
l-94 -31 -25 30 c-14 16 -51 61 -83 100 -78 97 -117 125 -172 126 -120 3 -225
-179 -225 -389 0 -25 -6 -37 -22 -46 -28 -15 -414 -139 -433 -139 -7 0 -25 31
-40 73 -183 485 -206 533 -297 626 -90 92 -169 142 -625 395 -57 32 -103 61
-103 65 0 4 12 18 26 32 15 13 40 51 55 84 l29 60 0 433 0 433 50 46 c61 56
103 120 131 199 37 105 13 279 -47 345 -13 14 -22 15 -52 7 -20 -6 -67 -8
-103 -6 -99 7 -163 46 -292 177 -114 117 -185 166 -287 201 -85 29 -224 36
-300 15z m136 -970 c171 -98 364 -125 534 -75 19 5 41 10 47 10 10 0 13 -80
13 -373 0 -417 -4 -448 -62 -504 -83 -79 -161 -85 -368 -30 -337 90 -386 122
-410 272 -15 92 -27 120 -62 150 -26 22 -39 25 -111 25 -58 0 -92 5 -117 18
-120 60 -100 242 28 268 50 10 102 -10 147 -56 21 -22 48 -40 60 -40 36 1 99
36 134 75 54 62 73 117 73 218 0 48 4 87 7 87 4 0 43 -20 87 -45z m-757 -1106
c31 -186 178 -371 344 -430 l37 -13 0 -168 c0 -189 6 -176 -90 -198 -144 -34
-300 -126 -435 -255 -165 -159 -251 -193 -428 -169 l-46 7 -27 69 c-52 137
-156 253 -285 317 -167 84 -311 59 -546 -94 -122 -80 -163 -112 -286 -227
l-108 -100 -21 28 c-48 65 -168 174 -219 199 -87 45 -105 48 -294 54 l-180 6
110 57 c61 31 153 74 205 96 52 21 244 105 425 185 182 80 418 183 525 230
107 47 384 169 615 272 231 103 438 190 460 195 22 4 83 8 136 9 l96 1 12 -71z
m1367 -161 c143 -73 535 -298 612 -351 36 -24 52 -47 88 -121 58 -120 215
-529 206 -538 -4 -3 -67 -25 -141 -48 -74 -23 -140 -44 -148 -47 -10 -4 -13
27 -13 160 0 162 0 166 -25 195 -29 35 -70 47 -108 33 -46 -18 -52 -41 -57
-255 l-5 -199 -140 -47 c-77 -26 -154 -49 -171 -53 -31 -6 -32 -5 -49 46 -28
86 -102 225 -157 294 -70 88 -174 173 -268 219 l-79 39 0 192 -1 193 62 31
c113 57 203 165 239 287 7 23 13 42 14 42 1 0 64 -32 141 -72z m1886 -686 c11
-21 10 -25 -7 -35 -11 -5 -35 -26 -53 -45 -30 -31 -33 -39 -30 -85 3 -43 7
-54 29 -66 37 -21 71 -8 99 38 14 22 30 41 37 41 6 0 34 -23 62 -52 l51 -52 0
-107 c0 -92 3 -110 21 -133 24 -30 78 -36 100 -10 7 8 17 45 23 82 l11 67 23
-37 c33 -54 46 -137 32 -217 -17 -105 -52 -162 -170 -287 -116 -120 -115 -118
-145 -286 -4 -21 -12 -41 -19 -46 -16 -12 -126 -2 -126 11 0 7 11 46 24 87 48
149 44 251 -20 523 -94 400 -98 424 -84 559 5 54 17 115 26 136 l15 37 44 -50
c24 -27 50 -61 57 -73z m-2497 -138 c107 -28 212 -90 300 -179 68 -67 89 -97
133 -185 28 -58 53 -118 54 -135 l3 -30 -200 -67 c-110 -37 -291 -96 -403
-132 l-203 -66 -83 45 c-171 93 -339 97 -510 14 -117 -57 -233 -183 -281 -306
-10 -24 -22 -43 -28 -43 -5 0 -40 14 -76 31 -91 43 -187 62 -296 57 -108 -5
-111 -5 -286 103 -74 46 -190 117 -259 159 -262 161 -297 183 -349 222 l-54
41 24 20 c43 35 176 96 266 123 65 19 119 27 208 31 142 6 221 -4 381 -52 283
-84 303 -88 419 -89 190 -1 288 44 472 216 198 185 373 254 613 242 52 -3 122
-12 155 -20z m-1750 -44 c46 -31 121 -100 109 -100 -3 0 -20 11 -37 24 -62 46
-261 71 -332 42 -44 -19 -45 -7 -2 19 82 49 102 55 157 52 43 -2 66 -10 105
-37z m-127 -47 c-15 -2 -42 -2 -60 0 -18 2 -6 4 27 4 33 0 48 -2 33 -4z m4068
-78 c3 -14 4 -31 1 -38 -2 -6 -44 -25 -93 -40 -49 -16 -242 -78 -429 -138
-187 -61 -394 -127 -460 -149 -66 -21 -289 -93 -495 -160 -851 -276 -1075
-347 -1100 -351 -30 -3 -40 1 -40 20 0 10 6 23 13 29 11 9 294 102 310 102 4
0 83 27 175 59 92 33 349 118 572 191 378 122 1347 439 1470 480 71 24 69 24
76 -5z m-5176 -42 c63 -29 130 -91 179 -166 22 -35 41 -66 41 -68 0 -3 -46
-52 -103 -110 -102 -103 -137 -144 -197 -226 -16 -24 -35 -43 -42 -43 -16 0
-142 65 -204 106 -123 80 -194 210 -194 354 0 68 15 146 30 165 6 7 81 11 227
10 199 -1 222 -3 263 -22z m5216 -139 c4 -17 2 -29 -7 -35 -16 -10 -202 -72
-599 -199 -157 -50 -379 -122 -495 -160 -115 -37 -338 -110 -495 -160 -157
-51 -364 -118 -460 -149 -390 -128 -471 -153 -486 -147 -9 4 -14 15 -12 28 3
21 41 35 378 146 206 68 717 236 1135 374 418 137 812 267 875 288 141 47 157
49 166 14z m42 -180 c3 -27 -1 -32 -25 -38 -28 -7 -546 -175 -1008 -326 -261
-86 -543 -177 -755 -245 -74 -24 -297 -96 -494 -160 -329 -107 -361 -115 -372
-100 -7 9 -10 23 -8 30 7 16 7 16 299 110 132 42 551 180 930 305 380 126 803
266 940 311 138 45 293 97 345 115 118 41 144 41 148 -2z m-4868 -149 c38 -26
70 -48 70 -51 0 -3 -25 -38 -56 -77 -31 -39 -67 -94 -81 -122 -14 -27 -27 -52
-28 -53 -4 -5 -195 109 -195 115 0 12 205 233 216 233 2 0 35 -20 74 -45z
m4908 -152 l-4 -99 -78 -133 c-100 -168 -176 -275 -186 -265 -10 12 -160 440
-160 459 0 7 4 16 9 20 29 17 407 132 415 125 4 -5 7 -53 4 -107z m-4529 -58
c66 -41 130 -84 142 -94 l24 -19 -18 -71 c-31 -120 -67 -231 -75 -231 -11 0
-364 209 -381 225 -12 12 -8 24 29 87 42 71 134 178 152 178 5 0 62 -34 127
-75z m3970 -198 c117 -329 118 -330 186 -340 18 -3 29 -10 27 -17 -3 -14 -127
-197 -164 -243 l-23 -27 -83 47 c-105 59 -194 141 -278 253 -83 112 -207 321
-197 331 4 4 96 35 203 69 107 34 206 65 220 70 52 17 53 16 109 -143z m-4627
-5 c210 -124 488 -287 543 -317 28 -16 121 -71 208 -122 720 -430 833 -476
1047 -427 91 20 179 77 222 143 l33 50 106 -6 c185 -10 303 34 445 168 l89 85
125 38 c69 21 235 73 370 116 135 43 268 85 297 94 l52 15 7 -36 c11 -56 -3
-230 -25 -314 -62 -243 -244 -445 -473 -526 -102 -35 -257 -42 -400 -17 -268
47 -425 4 -600 -166 -34 -33 -64 -60 -66 -60 -1 0 -85 49 -185 108 -946 563
-946 563 -1168 570 -105 3 -139 1 -201 -17 -221 -60 -371 -190 -469 -408 -23
-51 -46 -90 -51 -87 -17 11 -97 182 -127 274 -60 186 -65 219 -66 430 0 173 3
204 23 273 12 43 31 96 42 116 22 45 68 101 81 101 5 0 69 -35 141 -78z m1056
-39 c55 -34 85 -47 111 -46 20 0 75 1 122 2 47 1 108 -3 135 -10 101 -24 357
-158 349 -182 -3 -7 11 -23 30 -36 130 -88 161 -221 73 -317 -53 -58 -112 -77
-221 -72 -63 3 -94 9 -137 30 -98 48 -624 355 -628 366 -4 13 78 312 86 312 2
0 38 -21 80 -47z m1267 13 c61 -47 69 -126 19 -186 -52 -62 -146 -61 -198 1
-35 41 -37 123 -4 164 46 59 122 67 183 21z m3064 -135 c21 -13 1 -112 -84
-413 l-28 -98 -198 0 c-110 0 -199 3 -199 8 0 8 55 92 143 220 32 46 62 93 66
105 5 12 34 59 65 105 l57 82 82 0 c45 0 88 -4 96 -9z m-1336 -170 c149 -227
254 -330 424 -418 177 -92 270 -114 528 -122 l189 -6 -70 -70 c-127 -127 -248
-172 -438 -163 -216 11 -373 115 -532 351 -206 307 -194 280 -194 430 0 64 3
117 8 117 4 0 42 -54 85 -119z m-3274 -473 c66 -22 128 -56 286 -158 122 -78
397 -242 675 -403 85 -50 216 -127 291 -172 158 -96 531 -313 704 -410 112
-63 174 -97 548 -304 141 -78 509 -284 600 -336 26 -14 47 -31 47 -36 0 -5
-15 -40 -34 -77 -18 -37 -86 -179 -151 -317 -64 -137 -122 -256 -127 -263 -8
-10 -28 -3 -92 31 -44 25 -232 122 -416 217 -184 95 -483 249 -665 343 -181
94 -789 402 -1350 683 l-1020 512 1 128 c2 109 6 141 28 210 81 251 293 396
551 376 39 -3 94 -13 124 -24z m4784 -638 c227 -86 361 -265 374 -500 10 -178
-46 -320 -174 -447 -40 -40 -77 -73 -81 -73 -5 0 -26 25 -45 55 -69 102 -183
174 -315 197 -109 18 -196 2 -456 -88 -729 -251 -669 -241 -866 -140 -170 87
-572 305 -584 317 -5 5 -7 11 -3 15 7 7 223 90 452 174 88 32 268 100 400 150
132 51 348 132 480 182 516 192 503 189 660 184 72 -3 116 -10 158 -26z
m-1483 -212 c-71 -29 -214 -78 -205 -70 8 7 129 57 185 75 28 10 45 6 20 -5z
m-3716 -180 c493 -241 943 -468 967 -488 13 -11 17 -18 9 -15 -8 2 -81 27
-161 54 -201 68 -282 84 -382 79 -168 -10 -284 -83 -373 -234 -10 -17 -13 -17
-29 -4 -50 42 -137 187 -193 322 -62 150 -122 408 -95 408 4 0 120 -55 257
-122z m-811 -64 c13 -4 15 -22 11 -92 -5 -124 -14 -188 -29 -230 -13 -36 -14
-36 -14 -9 -1 16 -5 36 -10 46 -11 20 -24 268 -16 282 7 10 36 12 58 3z m-74
-552 c19 -45 32 -84 29 -87 -2 -2 -54 -7 -116 -11 l-112 -7 0 29 c0 40 40 102
87 136 59 43 72 36 112 -60z m237 43 c29 -23 53 -61 69 -112 6 -22 4 -23 -49
-23 l-54 0 -26 78 c-14 42 -26 83 -26 89 0 17 44 0 86 -32z m1239 -3 c33 -10
88 -31 123 -47 l62 -28 0 -352 0 -353 -32 8 c-40 9 -214 91 -271 127 -89 56
-147 97 -147 102 0 3 -16 24 -36 46 -83 91 -116 239 -78 347 23 66 85 130 145
151 60 21 162 21 234 -1z m4387 4 c59 -21 124 -76 155 -131 25 -45 28 -60 28
-140 0 -85 -3 -96 -38 -167 -66 -135 -172 -222 -360 -297 -57 -22 -107 -41
-110 -41 -4 0 -7 164 -7 364 l0 364 58 20 c31 11 71 25 87 31 43 14 144 12
187 -3z m1242 -12 c14 -5 16 -28 16 -145 0 -155 2 -152 -80 -146 l-35 3 -3
134 c-1 74 0 140 2 147 6 13 71 18 100 7z m-1746 -266 l-3 -183 -24 -3 c-12
-2 -34 -1 -47 2 l-24 6 0 159 c0 115 3 161 13 168 11 10 64 31 80 32 4 1 6
-81 5 -181z m-3446 118 c25 -13 98 -41 163 -61 73 -22 126 -45 140 -60 19 -18
95 -154 95 -168 0 -12 -117 -16 -287 -11 l-193 7 0 159 c0 180 -1 178 82 134z
m3196 -146 c4 -177 39 -157 -282 -158 -161 -1 -278 2 -281 8 -3 5 15 49 39 98
l45 90 83 -5 c78 -5 92 -2 223 41 77 24 147 44 155 43 12 -2 16 -24 18 -117z
m-2143 -175 c449 -227 485 -247 485 -261 0 -13 -31 -25 -374 -139 -211 -70
-261 -84 -271 -73 -7 7 -50 85 -95 173 -46 88 -116 221 -155 295 -83 158 -125
247 -125 267 0 10 32 -3 103 -40 56 -30 251 -130 432 -222z m-2663 -125 c3
-162 3 -298 0 -302 -4 -4 -118 -8 -254 -10 l-247 -3 -3 100 c-2 55 -2 193 0
308 l3 207 247 -2 247 -3 7 -295z m6816 -87 l-3 -228 -57 -3 -58 -3 0 231 0
230 60 0 60 0 -2 -227z m-291 24 c3 -211 4 -207 -68 -130 -67 71 -69 76 -69
206 l0 118 68 -3 67 -3 2 -188z m598 77 c0 -107 -1 -112 -30 -150 -16 -21 -45
-53 -65 -71 l-35 -32 -5 79 c-3 43 -4 127 -2 185 l3 106 67 -3 67 -3 0 -111z
m-2327 -29 c13 -5 16 -228 3 -274 l-6 -24 -388 -1 c-213 -1 -387 2 -387 5 0 6
50 116 115 253 10 21 26 41 36 44 19 8 606 4 627 -3z m-2651 -87 c78 -142 104
-198 98 -207 -3 -5 -123 -7 -268 -4 -252 5 -309 11 -414 44 l-33 11 0 121 0
122 283 3 283 3 51 -93z m2913 -21 l0 -114 -41 -16 c-23 -9 -46 -14 -50 -11
-10 6 -12 237 -2 247 3 4 26 7 50 7 l43 0 0 -113z"/>
<path d="M2775 2609 c-31 -28 -35 -36 -35 -80 0 -57 19 -93 61 -115 54 -27
115 -8 149 49 71 116 -73 235 -175 146z"/>
<path d="M2730 2320 c-40 -40 -14 -110 41 -110 32 0 46 10 58 43 18 47 -12 86
-66 87 -7 0 -22 -9 -33 -20z"/>
<path d="M2970 2287 c-19 -9 -26 -22 -28 -51 -7 -85 85 -106 118 -26 10 25 10
34 -4 55 -9 14 -20 25 -25 25 -5 0 -15 2 -23 5 -7 3 -24 -1 -38 -8z"/>
<path d="M7184 2621 c-66 -41 -69 -137 -7 -191 31 -28 42 -31 75 -27 52 7 81
28 103 73 16 34 16 42 4 78 -26 73 -113 107 -175 67z"/>
<path d="M7196 2315 c-27 -20 -27 -82 -1 -101 43 -31 105 -4 105 47 0 56 -60
87 -104 54z"/>
<path d="M7142 8984 c-17 -7 -33 -21 -36 -31 -3 -10 -8 -196 -10 -413 -3 -217
-5 -410 -6 -428 l0 -33 -30 22 c-36 27 -122 36 -174 19 -148 -48 -184 -244
-64 -345 74 -63 149 -71 243 -27 71 34 127 92 164 171 l26 56 3 481 c3 469 2
481 -17 506 -25 31 -59 39 -99 22z"/>
<path d="M6336 8859 c-103 -81 -50 -249 78 -249 135 0 188 181 73 250 -44 27
-116 27 -151 -1z"/>
<path d="M7755 8505 l-25 -24 0 -581 0 -581 25 -24 c31 -32 78 -33 109 -2 22
22 23 32 30 233 10 304 7 913 -5 952 -18 57 -90 72 -134 27z"/>
<path d="M7245 7496 c-71 -32 -100 -101 -72 -169 47 -110 203 -95 239 24 26
90 -81 184 -167 145z"/>
<path d="M8610 7062 c-77 -38 -74 -151 5 -189 19 -9 34 -22 32 -27 -4 -12
-141 -64 -169 -65 -24 -1 -23 15 2 46 49 62 -6 163 -88 163 -71 0 -121 -56
-108 -123 7 -37 24 -56 73 -81 19 -9 30 -22 27 -29 -5 -15 -180 -74 -189 -65
-3 3 4 24 16 47 19 37 20 44 7 83 -25 80 -127 103 -184 41 -36 -39 -34 -110 4
-144 15 -14 40 -31 56 -37 37 -16 23 -35 -40 -52 -112 -32 -182 -130 -171
-239 8 -67 55 -211 94 -282 57 -106 172 -149 278 -105 70 29 90 18 60 -34 -35
-62 -1 -151 64 -165 61 -13 131 43 131 105 0 37 -30 81 -66 96 -61 26 -44 48
64 85 94 31 109 23 77 -37 -30 -59 -7 -126 52 -150 46 -20 86 -10 118 28 47
56 28 135 -41 164 -60 25 -45 47 53 82 50 18 91 28 96 23 5 -5 2 -22 -7 -39
-52 -101 30 -209 127 -168 51 21 71 56 64 113 -6 52 -30 80 -79 90 -49 10 -35
38 32 62 99 36 150 105 150 202 0 54 -60 264 -92 321 -26 46 -92 94 -149 109
-37 9 -54 8 -109 -10 -35 -11 -67 -18 -69 -15 -3 3 4 23 17 44 38 67 24 123
-38 155 -37 19 -57 19 -100 -3z m293 -376 c24 -35 57 -145 57 -186 0 -30 -5
-39 -25 -48 -14 -6 -25 -16 -25 -21 0 -22 -44 -19 -72 5 -52 43 -85 30 -120
-48 -13 -29 -26 -39 -55 -47 -32 -9 -40 -8 -59 10 -34 32 -85 23 -105 -19 -10
-22 -31 -42 -59 -56 l-43 -22 -24 24 c-43 43 -113 13 -113 -47 0 -21 -8 -29
-46 -45 l-46 -19 -30 30 c-23 23 -35 50 -49 109 -26 109 -25 121 14 144 41 25
73 25 87 0 17 -33 47 -43 81 -29 36 14 52 40 43 73 -5 21 0 26 40 41 l46 18
25 -27 c51 -55 136 -19 121 51 -6 26 -3 29 44 46 l51 18 24 -25 c47 -51 127
-17 111 48 -5 20 -1 25 27 34 55 17 83 14 100 -12z"/>
<path d="M8489 5439 c-96 -14 -175 -73 -220 -165 -20 -40 -24 -64 -24 -134 0
-76 3 -91 30 -139 58 -104 168 -168 276 -158 262 23 376 327 192 510 -69 70
-158 100 -254 86z m116 -189 c84 -52 80 -176 -7 -221 -49 -25 -88 -24 -129 4
-66 44 -83 121 -42 184 35 53 120 69 178 33z"/>
<path d="M7853 4490 c-88 -53 -80 -180 13 -225 49 -23 96 -13 138 30 46 45 53
82 27 140 -31 71 -112 96 -178 55z"/>
<path d="M1560 1427 c-52 -26 -61 -95 -18 -134 19 -17 59 -18 669 -23 l649 -5
27 -28 c27 -27 28 -31 33 -170 3 -78 9 -149 13 -158 9 -19 49 -39 77 -39 10 0
30 14 45 32 l27 32 -4 155 c-4 175 -13 206 -84 275 -77 75 -34 71 -759 74
-513 2 -655 -1 -675 -11z"/>
<path d="M3779 1425 c-134 -42 -212 -234 -148 -369 27 -57 104 -128 157 -144
29 -9 375 -12 1390 -12 l1350 0 53 28 c93 48 150 144 148 248 -1 92 -55 183
-136 231 l-48 28 -1360 2 c-1149 1 -1367 0 -1406 -12z m2752 -184 c59 -59 27
-161 -55 -176 -17 -3 -620 -4 -1339 -3 l-1309 3 -29 33 c-41 45 -41 102 0 143
l29 29 1337 0 1337 0 29 -29z"/>
<path d="M7378 1426 c-77 -21 -148 -87 -183 -169 -22 -52 -19 -152 6 -207 39
-88 132 -156 227 -167 57 -6 140 22 194 67 74 61 111 186 85 288 l-9 32 507 0
c424 0 511 2 534 15 49 25 57 87 15 126 l-26 24 -651 2 c-501 1 -663 -1 -699
-11z"/>
</g>
</svg>
